Moderustic-SemiBold.ufo
<glyph name="quotedbl" format="2">
  <advance width="409"/>
  <unicode hex="0022"/>
  <outline>
    <contour>
      <point x="51" y="556" type="line"/>
      <point x="149" y="556" type="line"/>
      <point x="164" y="803" type="line"/>
      <point x="36" y="803" type="line"/>
    </contour>
    <contour>
      <point x="260" y="556" type="line"/>
      <point x="358" y="556" type="line"/>
      <point x="373" y="803" type="line"/>
      <point x="245" y="803" type="line"/>
    </contour>
  </outline>
</glyph>
<glyph name="dollar" format="2">
  <advance width="600"/>
  <unicode hex="0024"/>
  <outline>
    <contour>
      <point x="118" y="200.201" type="curve"/>
      <point x="33" y="120.48" type="line"/>
      <point x="95" y="48.2612"/>
      <point x="180" y="3.242"/>
      <point x="303" y="3.242" type="curve" smooth="yes"/>
      <point x="465" y="3.242"/>
      <point x="561" y="81.2135"/>
      <point x="561" y="205.216" type="curve" smooth="yes"/>
      <point x="561" y="306.673"/>
      <point x="496.844" y="361.222"/>
      <point x="315.35" y="396.857" type="curve" smooth="yes"/>
      <point x="224.123" y="414.769"/>
      <point x="183" y="438.191"/>
      <point x="183" y="491.738" type="curve" smooth="yes"/>
      <point x="183" y="545.285"/>
      <point x="225.147" y="584.74"/>
      <point x="302.416" y="584.74" type="curve" smooth="yes"/>
      <point x="369.65" y="584.74"/>
      <point x="424.843" y="550.596"/>
      <point x="470" y="500.329" type="curve"/>
      <point x="555" y="580.051" type="line"/>
      <point x="492" y="652.269"/>
      <point x="406" y="697.288"/>
      <point x="289" y="697.288" type="curve" smooth="yes"/>
      <point x="134" y="697.288"/>
      <point x="38" y="617.438"/>
      <point x="38" y="492.495" type="curve" smooth="yes"/>
      <point x="38" y="382.584"/>
      <point x="112.102" y="320.105"/>
      <point x="297" y="283.945" type="curve" smooth="yes"/>
      <point x="381.104" y="267.497"/>
      <point x="416" y="250.126"/>
      <point x="416" y="204.095" type="curve" smooth="yes"/>
      <point x="416" y="149.609"/>
      <point x="368" y="115.79"/>
      <point x="293" y="115.79" type="curve" smooth="yes"/>
      <point x="218" y="115.79"/>
      <point x="163" y="149.934"/>
    </contour>
    <contour>
      <point x="288" y="-101" type="line"/>
      <point x="326" y="-101" type="line"/>
      <point x="326" y="780" type="line"/>
      <point x="288" y="780" type="line"/>
    </contour>
  </outline>
</glyph>
<glyph name="three" format="2">
  <advance width="578"/>
  <unicode hex="0033"/>
  <outline>
    <contour>
      <point x="24" y="84" type="line"/>
      <point x="87" y="17"/>
      <point x="173" y="-19"/>
      <point x="289" y="-19" type="curve" smooth="yes"/>
      <point x="447" y="-19"/>
      <point x="543" y="48"/>
      <point x="543" y="180" type="curve" smooth="yes"/>
      <point x="543" y="312"/>
      <point x="448" y="382"/>
      <point x="192" y="362" type="curve"/>
      <point x="192" y="292" type="line"/>
      <point x="329" y="292"/>
      <point x="398" y="258"/>
      <point x="398" y="190" type="curve" smooth="yes"/>
      <point x="398" y="131"/>
      <point x="347" y="101"/>
      <point x="271" y="101" type="curve" smooth="yes"/>
      <point x="205" y="101"/>
      <point x="158" y="123"/>
      <point x="112" y="172" type="curve"/>
    </contour>
    <contour>
      <point x="192" y="356" type="line"/>
      <point x="414" y="336"/>
      <point x="520" y="414"/>
      <point x="520" y="533" type="curve" smooth="yes"/>
      <point x="520" y="644"/>
      <point x="424" y="720"/>
      <point x="283" y="720" type="curve" smooth="yes"/>
      <point x="188" y="720"/>
      <point x="96" y="685"/>
      <point x="48" y="637" type="curve"/>
      <point x="136" y="549" type="line"/>
      <point x="173" y="581"/>
      <point x="224" y="600"/>
      <point x="273" y="600" type="curve" smooth="yes"/>
      <point x="332" y="600"/>
      <point x="375" y="573"/>
      <point x="375" y="521" type="curve" smooth="yes"/>
      <point x="375" y="465"/>
      <point x="324" y="426"/>
      <point x="192" y="426" type="curve"/>
    </contour>
  </outline>
</glyph>
<glyph name="six" format="2">
  <advance width="631"/>
  <unicode hex="0036"/>
  <outline>
    <contour>
      <point x="573.855" y="637" type="line"/>
      <point x="525.855" y="685"/>
      <point x="435" y="720"/>
      <point x="340" y="720" type="curve" smooth="yes"/>
      <point x="144" y="720"/>
      <point x="28" y="581"/>
      <point x="28" y="330" type="curve" smooth="yes"/>
      <point x="28" y="100"/>
      <point x="130" y="-20"/>
      <point x="316" y="-20" type="curve" smooth="yes"/>
      <point x="490" y="-20"/>
      <point x="599" y="85.7782"/>
      <point x="599" y="235.464" type="curve" smooth="yes"/>
      <point x="599" y="373.176"/>
      <point x="502" y="457"/>
      <point x="357" y="457" type="curve" smooth="yes"/>
      <point x="265.956" y="457"/>
      <point x="180.54" y="414.853"/>
      <point x="150.195" y="354.956" type="curve"/>
      <point x="161.505" y="340.913" type="line"/>
      <point x="153.562" y="509.06"/>
      <point x="235.404" y="600"/>
      <point x="339.785" y="600" type="curve" smooth="yes"/>
      <point x="397.855" y="600"/>
      <point x="448.855" y="581"/>
      <point x="485.855" y="549" type="curve"/>
    </contour>
    <contour>
      <point x="186" y="218" type="curve" smooth="yes"/>
      <point x="186" y="299"/>
      <point x="238" y="347"/>
      <point x="325" y="347" type="curve" smooth="yes"/>
      <point x="406" y="347"/>
      <point x="454" y="305"/>
      <point x="454" y="227" type="curve" smooth="yes"/>
      <point x="454" y="149"/>
      <point x="405" y="100"/>
      <point x="316" y="100" type="curve" smooth="yes"/>
      <point x="235" y="100"/>
      <point x="186" y="140"/>
    </contour>
  </outline>
</glyph>
<glyph name="H" format="2">
  <advance width="736"/>
  <unicode hex="0048"/>
  <anchor x="368" y="-20" name="bottom"/>
  <anchor x="368" y="719" name="top"/>
  <anchor x="-40" y="500" name="topgr"/>
  <outline>
    <contour>
      <point x="77" y="0" type="line" name="ab01"/>
      <point x="222" y="0" type="line"/>
      <point x="222" y="310" type="line" name="dv01"/>
      <point x="514" y="310" type="line"/>
      <point x="514" y="0" type="line" name="ab02"/>
      <point x="659" y="0" type="line"/>
      <point x="659" y="700" type="line" name="at01"/>
      <point x="514" y="700" type="line"/>
      <point x="514" y="430" type="line"/>
      <point x="222" y="430" type="line" name="dv02"/>
      <point x="222" y="700" type="line" name="at02"/>
      <point x="77" y="700" type="line"/>
    </contour>
  </outline>
</glyph>
<glyph name="K" format="2">
  <advance width="670"/>
  <unicode hex="004B"/>
  <anchor x="335" y="719" name="top"/>
  <anchor x="335" y="-20" name="bottom"/>
  <outline>
    <contour>
      <point x="68" y="0" type="line"/>
      <point x="68" y="700" type="line"/>
      <point x="213" y="700" type="line"/>
      <point x="213" y="0" type="line"/>
    </contour>
    <contour>
      <point x="100" y="299" type="line"/>
      <point x="111" y="421" type="line"/>
      <point x="337" y="421" type="line"/>
      <point x="498" y="700" type="line"/>
      <point x="649" y="700" type="line"/>
      <point x="441" y="367" type="line"/>
      <point x="653" y="0" type="line"/>
      <point x="484" y="0" type="line"/>
      <point x="325" y="299" type="line"/>
    </contour>
  </outline>
</glyph>
<glyph name="L" format="2">
  <advance width="554"/>
  <unicode hex="004C"/>
  <anchor x="140" y="719" name="top"/>
  <anchor x="277" y="-20" name="bottom"/>
  <outline>
    <contour>
      <point x="68" y="0" type="line" name="ab01"/>
      <point x="514" y="0" type="line"/>
      <point x="514" y="120" type="line" name="sv01"/>
      <point x="214" y="120" type="line"/>
      <point x="214" y="700" type="line" name="at01"/>
      <point x="68" y="700" type="line"/>
    </contour>
  </outline>
</glyph>
<glyph name="R" format="2">
  <advance width="648"/>
  <unicode hex="0052"/>
  <anchor x="324" y="719" name="top"/>
  <anchor x="324" y="-20" name="bottom"/>
  <outline>
    <contour>
      <point x="68" y="0" type="line"/>
      <point x="214" y="0" type="line" name="ab01"/>
      <point x="214" y="580" type="line" name="sv01"/>
      <point x="298" y="580" type="line" smooth="yes"/>
      <point x="415" y="580"/>
      <point x="463" y="548"/>
      <point x="463" y="472" type="curve" smooth="yes"/>
      <point x="463" y="396"/>
      <point x="415" y="364"/>
      <point x="298" y="364" type="curve" smooth="yes"/>
      <point x="100" y="364" type="line" name="dv02"/>
      <point x="100" y="244" type="line" name="dv01"/>
      <point x="348" y="244" type="line" smooth="yes"/>
      <point x="507" y="244"/>
      <point x="609" y="334"/>
      <point x="609" y="476" type="curve" smooth="yes"/>
      <point x="609" y="615"/>
      <point x="511" y="700"/>
      <point x="348" y="700" type="curve" smooth="yes" name="at01"/>
      <point x="68" y="700" type="line"/>
    </contour>
    <contour>
      <point x="469" y="0" type="line" name="ab02"/>
      <point x="627" y="0" type="line"/>
      <point x="457" y="333" type="line"/>
      <point x="326" y="281" type="line"/>
    </contour>
  </outline>
</glyph>
<glyph name="g" format="2">
  <advance width="634"/>
  <unicode hex="0067"/>
  <anchor x="298" y="-220" name="bottom"/>
  <anchor x="317" y="520" name="top"/>
  <outline>
    <contour>
      <point x="262" y="-20" type="curve" smooth="yes" name="dv01"/>
      <point x="386" y="-20"/>
      <point x="448" y="89"/>
      <point x="448" y="253" type="curve" smooth="yes"/>
      <point x="448" y="423"/>
      <point x="381" y="520"/>
      <point x="256" y="520" type="curve" smooth="yes" name="at01"/>
      <point x="124" y="520"/>
      <point x="50" y="411"/>
      <point x="50" y="259" type="curve" smooth="yes"/>
      <point x="50" y="99"/>
      <point x="133" y="-20"/>
    </contour>
    <contour>
      <point x="304.493" y="90" type="curve" smooth="yes" name="dv02"/>
      <point x="235.181" y="90"/>
      <point x="195" y="151.191"/>
      <point x="195" y="254.514" type="curve" smooth="yes"/>
      <point x="195" y="355.831"/>
      <point x="234.176" y="410"/>
      <point x="301.48" y="410" type="curve" smooth="yes" name="sv01"/>
      <point x="373.805" y="410"/>
      <point x="416" y="348.809"/>
      <point x="416" y="250.502" type="curve" smooth="yes"/>
      <point x="416" y="153.197"/>
      <point x="374.81" y="90"/>
    </contour>
    <contour>
      <point x="68" y="-133" type="line"/>
      <point x="118.101" y="-190"/>
      <point x="197.262" y="-220"/>
      <point x="291.452" y="-220" type="curve" smooth="yes" name="at01"/>
      <point x="459.793" y="-220"/>
      <point x="561" y="-124"/>
      <point x="561" y="52" type="curve" smooth="yes"/>
      <point x="561" y="500" type="line" name="av01"/>
      <point x="416" y="500" type="line"/>
      <point x="416" y="64.2857" type="line" smooth="yes"/>
      <point x="416" y="-59.9179"/>
      <point x="365" y="-110"/>
      <point x="280" y="-110" type="curve" smooth="yes" name="sv01"/>
      <point x="227" y="-110"/>
      <point x="177" y="-90.6481"/>
      <point x="146" y="-55" type="curve"/>
    </contour>
  </outline>
</glyph>
<glyph name="t" format="2">
  <advance width="365"/>
  <unicode hex="0074"/>
  <anchor x="175" y="630" name="top"/>
  <anchor x="220" y="-20" name="bottom"/>
  <anchor x="272" y="700" name="topright"/>
  <outline>
    <contour>
      <point x="16" y="390" type="line" name="dv03"/>
      <point x="338" y="390" type="line"/>
      <point x="338" y="500" type="line"/>
      <point x="16" y="500" type="line" name="dv04"/>
    </contour>
    <contour>
      <point x="330" y="109" type="line"/>
      <point x="306" y="98"/>
      <point x="292" y="93"/>
      <point x="277" y="93" type="curve" smooth="yes" name="dv02"/>
      <point x="254" y="93"/>
      <point x="243" y="105"/>
      <point x="243" y="169" type="curve" smooth="yes"/>
      <point x="243" y="620" type="line" name="av01"/>
      <point x="98" y="620" type="line"/>
      <point x="98" y="132" type="line" smooth="yes"/>
      <point x="98" y="26"/>
      <point x="145" y="-21"/>
      <point x="241" y="-21" type="curve" smooth="yes" name="dv01"/>
      <point x="280" y="-21"/>
      <point x="311" y="-13"/>
      <point x="355" y="7" type="curve"/>
    </contour>
  </outline>
</glyph>
<glyph name="x" format="2">
  <advance width="574"/>
  <unicode hex="0078"/>
  <anchor x="287" y="520" name="top"/>
  <anchor x="287" y="-20" name="bottom"/>
  <outline>
    <contour>
      <point x="32" y="0" type="line" name="ab01"/>
      <point x="189" y="0" type="line"/>
      <point x="287" y="184" type="line" name="iv01"/>
      <point x="385" y="0" type="line" name="ab02"/>
      <point x="544" y="0" type="line"/>
      <point x="392.491" y="261.985" type="line"/>
      <point x="382.497" y="236.012" type="line"/>
      <point x="535" y="500" type="line" name="av02"/>
      <point x="376" y="500" type="line"/>
      <point x="270.949" y="302.761" type="line" name="iv02"/>
      <point x="305.051" y="302.761" type="line"/>
      <point x="200" y="500" type="line"/>
      <point x="41" y="500" type="line" name="av01"/>
      <point x="193.503" y="236.012" type="line"/>
      <point x="183.509" y="261.985" type="line"/>
    </contour>
  </outline>
</glyph>
<glyph name="z" format="2">
  <advance width="483"/>
  <unicode hex="007A"/>
  <anchor x="241" y="520" name="top"/>
  <anchor x="241" y="-20" name="bottom"/>
  <outline>
    <contour>
      <point x="28" y="0" type="line" name="ab01"/>
      <point x="455" y="0" type="line"/>
      <point x="455" y="110" type="line" name="sv01"/>
      <point x="226" y="110" type="line"/>
      <point x="455" y="414" type="line"/>
      <point x="455" y="500" type="line"/>
      <point x="48" y="500" type="line" name="dv02"/>
      <point x="48" y="390" type="line" name="dv01"/>
      <point x="257" y="390" type="line"/>
      <point x="28" y="86" type="line"/>
    </contour>
  </outline>
</glyph>
<glyph name="yen" format="2">
  <advance width="662"/>
  <unicode hex="00A5"/>
  <outline>
    <contour>
      <point x="130" y="107" type="line"/>
      <point x="533" y="107" type="line"/>
      <point x="533" y="162" type="line"/>
      <point x="130" y="162" type="line"/>
    </contour>
    <contour>
      <point x="130" y="238" type="line"/>
      <point x="533" y="238" type="line"/>
      <point x="533" y="293" type="line"/>
      <point x="130" y="293" type="line"/>
    </contour>
    <contour>
      <point x="258" y="0" type="line" name="ab01"/>
      <point x="404" y="0" type="line"/>
      <point x="404" y="285" type="line" name="iv04"/>
      <point x="644" y="700" type="line" name="at01"/>
      <point x="476" y="700" type="line"/>
      <point x="331" y="427" type="line" name="iv05"/>
      <point x="186" y="700" type="line" name="at02"/>
      <point x="18" y="700" type="line"/>
      <point x="258" y="285" type="line" name="iv01"/>
    </contour>
  </outline>
</glyph>
<glyph name="twosuperior" format="2">
  <advance width="432"/>
  <unicode hex="00B2"/>
  <outline>
    <contour>
      <point x="31" y="429" type="line"/>
      <point x="303" y="487"/>
      <point x="402" y="557"/>
      <point x="402" y="677" type="curve" smooth="yes"/>
      <point x="402" y="776"/>
      <point x="334" y="834"/>
      <point x="220" y="834" type="curve" smooth="yes"/>
      <point x="137" y="834"/>
      <point x="78" y="803"/>
      <point x="35" y="751" type="curve"/>
      <point x="95" y="691" type="line"/>
      <point x="128" y="731"/>
      <point x="167" y="752"/>
      <point x="216" y="752" type="curve" smooth="yes"/>
      <point x="266" y="752"/>
      <point x="297" y="731"/>
      <point x="297" y="683" type="curve" smooth="yes"/>
      <point x="297" y="602"/>
      <point x="211" y="548"/>
      <point x="31" y="513" type="curve"/>
    </contour>
    <contour>
      <point x="31" y="344" type="line"/>
      <point x="402" y="344" type="line"/>
      <point x="402" y="426" type="line"/>
      <point x="31" y="426" type="line"/>
    </contour>
  </outline>
</glyph>
<glyph name="AE" format="2">
  <advance width="880"/>
  <unicode hex="00C6"/>
  <anchor x="480" y="719" name="top"/>
  <anchor x="480" y="-20" name="bottom"/>
  <outline>
    <contour>
      <point x="398" y="0" type="line"/>
      <point x="835" y="0" type="line" name="ab01"/>
      <point x="835" y="120" type="line" name="sv01"/>
      <point x="544" y="120" type="line"/>
      <point x="544" y="305" type="line" name="dv01"/>
      <point x="795" y="305" type="line"/>
      <point x="795" y="425" type="line"/>
      <point x="544" y="425" type="line" name="dv02"/>
      <point x="544" y="580" type="line" name="sv02"/>
      <point x="820" y="580" type="line"/>
      <point x="820" y="700" type="line" name="at01"/>
      <point x="398" y="700" type="line"/>
    </contour>
    <contour>
      <point x="246" y="580" type="line"/>
      <point x="532" y="580" type="line"/>
      <point x="533" y="700" type="line"/>
      <point x="290" y="700" type="line"/>
    </contour>
    <contour>
      <point x="183" y="119" type="line" name="dv01"/>
      <point x="469" y="119" type="line"/>
      <point x="435" y="239" type="line" name="dv03"/>
      <point x="217" y="239" type="line" name="dv02"/>
    </contour>
    <contour>
      <point x="17" y="0" type="line"/>
      <point x="170" y="0" type="line"/>
      <point x="371" y="700" type="line"/>
      <point x="244" y="700" type="line"/>
    </contour>
  </outline>
</glyph>
<glyph name="dotlessi" format="2">
  <advance width="272"/>
  <unicode hex="0131"/>
  <anchor x="136" y="520" name="top"/>
  <anchor x="136" y="-20" name="bottom"/>
  <anchor x="204" y="-2" name="ogonek"/>
  <outline>
    <contour>
      <point x="64" y="0" type="line"/>
      <point x="209" y="0" type="line"/>
      <point x="209" y="500" type="line"/>
      <point x="64" y="500" type="line"/>
    </contour>
  </outline>
</glyph>
<glyph name="scedilla" format="2">
  <advance width="507"/>
  <unicode hex="015F"/>
  <anchor x="253" y="520" name="top"/>
  <anchor x="233" y="-218" name="bottom"/>
  <outline>
    <contour>
      <point x="37" y="67" type="line"/>
      <point x="84" y="13"/>
      <point x="157" y="-20"/>
      <point x="247" y="-20" type="curve" smooth="yes"/>
      <point x="370" y="-20"/>
      <point x="459" y="42.1445"/>
      <point x="459" y="148.392" type="curve" smooth="yes"/>
      <point x="459" y="222.564"/>
      <point x="413.033" y="261.775"/>
      <point x="280" y="298.741" type="curve" smooth="yes"/>
      <point x="211.033" y="317.905"/>
      <point x="191" y="330.816"/>
      <point x="191" y="359.883" type="curve" smooth="yes"/>
      <point x="191" y="388.951"/>
      <point x="211" y="410"/>
      <point x="251" y="410" type="curve" smooth="yes"/>
      <point x="290" y="410"/>
      <point x="335" y="389.63"/>
      <point x="365" y="355" type="curve"/>
      <point x="443" y="433" type="line"/>
      <point x="396" y="487"/>
      <point x="323" y="520"/>
      <point x="239" y="520" type="curve" smooth="yes"/>
      <point x="120" y="520"/>
      <point x="46" y="453.846"/>
      <point x="46" y="363.636" type="curve" smooth="yes"/>
      <point x="46" y="288.462"/>
      <point x="97.0666" y="235.601"/>
      <point x="236" y="200.256" type="curve" smooth="yes"/>
      <point x="294.067" y="185.484"/>
      <point x="314" y="173.193"/>
      <point x="314" y="144.126" type="curve" smooth="yes"/>
      <point x="314" y="109.044"/>
      <point x="283" y="90"/>
      <point x="237" y="90" type="curve" smooth="yes"/>
      <point x="190" y="90"/>
      <point x="145" y="110.37"/>
      <point x="115" y="145" type="curve"/>
    </contour>
    <contour>
      <point x="116" y="-205" type="line"/>
      <point x="140" y="-213"/>
      <point x="174" y="-218"/>
      <point x="213" y="-218" type="curve" smooth="yes"/>
      <point x="308" y="-218"/>
      <point x="357" y="-188"/>
      <point x="357" y="-135" type="curve" smooth="yes"/>
      <point x="357" y="-89"/>
      <point x="321" y="-64"/>
      <point x="259" y="-64" type="curve"/>
      <point x="303.665" y="16.2739" type="line"/>
      <point x="217.665" y="16.2739" type="line"/>
      <point x="160" y="-96" type="line"/>
      <point x="176" y="-94"/>
      <point x="189" y="-92"/>
      <point x="203" y="-92" type="curve" smooth="yes"/>
      <point x="237" y="-92"/>
      <point x="257" y="-105"/>
      <point x="257" y="-132" type="curve" smooth="yes"/>
      <point x="257" y="-158"/>
      <point x="237" y="-172"/>
      <point x="204" y="-172" type="curve" smooth="yes"/>
      <point x="184" y="-172"/>
      <point x="156" y="-167"/>
      <point x="136" y="-161" type="curve"/>
    </contour>
  </outline>
</glyph>
<glyph name="tbar" format="2">
  <advance width="365"/>
  <unicode hex="0167"/>
  <outline>
    <contour>
      <point x="16" y="390" type="line" name="dv03"/>
      <point x="338" y="390" type="line"/>
      <point x="338" y="500" type="line"/>
      <point x="16" y="500" type="line" name="dv04"/>
    </contour>
    <contour>
      <point x="330" y="109" type="line"/>
      <point x="306" y="98"/>
      <point x="292" y="93"/>
      <point x="277" y="93" type="curve" smooth="yes" name="dv02"/>
      <point x="254" y="93"/>
      <point x="243" y="105"/>
      <point x="243" y="169" type="curve" smooth="yes"/>
      <point x="243" y="620" type="line" name="av01"/>
      <point x="98" y="620" type="line"/>
      <point x="98" y="132" type="line" smooth="yes"/>
      <point x="98" y="26"/>
      <point x="145" y="-21"/>
      <point x="241" y="-21" type="curve" smooth="yes" name="dv01"/>
      <point x="280" y="-21"/>
      <point x="311" y="-13"/>
      <point x="355" y="7" type="curve"/>
    </contour>
    <contour>
      <point x="12.5" y="199.52" type="line"/>
      <point x="331.5" y="199.52" type="line"/>
      <point x="331.5" y="303.2" type="line"/>
      <point x="12.5" y="303.2" type="line"/>
    </contour>
  </outline>
</glyph>
<glyph name="schwa" format="2">
  <advance width="613"/>
  <unicode hex="0259"/>
  <anchor x="306" y="520" name="top"/>
  <anchor x="306" y="-20" name="bottom"/>
  <outline>
    <contour>
      <point x="199" y="199" type="line" name="dv03"/>
      <point x="207" y="129"/>
      <point x="246" y="90"/>
      <point x="307" y="90" type="curve" smooth="yes" name="dv02"/>
      <point x="372" y="90"/>
      <point x="411" y="133.398"/>
      <point x="418" y="199" type="curve" name="ah01"/>
    </contour>
    <contour>
      <point x="80" y="433" type="line"/>
      <point x="131" y="490"/>
      <point x="210" y="520"/>
      <point x="300" y="520" type="curve" smooth="yes" name="at01"/>
      <point x="463" y="520"/>
      <point x="564" y="421"/>
      <point x="564" y="254" type="curve" smooth="yes" name="sh02"/>
      <point x="564" y="89"/>
      <point x="466" y="-20"/>
      <point x="306" y="-20" type="curve" smooth="yes" name="dv01"/>
      <point x="149" y="-20"/>
      <point x="50" y="85"/>
      <point x="50" y="258" type="curve" smooth="yes" name="sh01"/>
      <point x="50" y="275"/>
      <point x="51" y="284"/>
      <point x="53" y="299" type="curve" name="dv04"/>
      <point x="420" y="299" type="line" name="sh03"/>
      <point x="414" y="365.6"/>
      <point x="362" y="410"/>
      <point x="290" y="410" type="curve" smooth="yes" name="sv01"/>
      <point x="238" y="410"/>
      <point x="187" y="387.593"/>
      <point x="158" y="355" type="curve"/>
    </contour>
  </outline>
</glyph>
<glyph name="gravecomb" format="2">
  <advance width="297"/>
  <unicode hex="0300"/>
  <anchor x="148" y="700" name="top"/>
  <anchor x="178" y="500" name="_top"/>
  <outline>
    <contour>
      <point x="134" y="550" type="line"/>
      <point x="224" y="550" type="line"/>
      <point x="153" y="701" type="line"/>
      <point x="30" y="701" type="line"/>
    </contour>
  </outline>
</glyph>
<glyph name="dotaccentcomb" format="2">
  <advance width="211"/>
  <unicode hex="0307"/>
  <anchor x="105" y="683" name="top"/>
  <anchor x="105" y="500" name="_top"/>
  <outline>
    <contour>
      <point x="30" y="614" type="curve" smooth="yes"/>
      <point x="30" y="580"/>
      <point x="56" y="540"/>
      <point x="107" y="540" type="curve" smooth="yes"/>
      <point x="158" y="540"/>
      <point x="181" y="578"/>
      <point x="181" y="615" type="curve" smooth="yes"/>
      <point x="181" y="652"/>
      <point x="156" y="686"/>
      <point x="108" y="686" type="curve" smooth="yes"/>
      <point x="56" y="686"/>
      <point x="30" y="648"/>
    </contour>
  </outline>
</glyph>
<glyph name="cedillacomb" format="2">
  <advance width="302"/>
  <unicode hex="0327"/>
  <anchor x="171" y="-10" name="_bottom"/>
  <anchor x="151" y="-208" name="bottom"/>
  <outline>
    <contour>
      <point x="34" y="-195" type="line"/>
      <point x="58" y="-203"/>
      <point x="92" y="-208"/>
      <point x="131" y="-208" type="curve" smooth="yes"/>
      <point x="226" y="-208"/>
      <point x="275" y="-178"/>
      <point x="275" y="-125" type="curve" smooth="yes"/>
      <point x="275" y="-79"/>
      <point x="239" y="-54"/>
      <point x="177" y="-54" type="curve"/>
      <point x="221.665" y="26.2739" type="line"/>
      <point x="135.665" y="26.2739" type="line"/>
      <point x="78" y="-86" type="line"/>
      <point x="94" y="-84"/>
      <point x="107" y="-82"/>
      <point x="121" y="-82" type="curve" smooth="yes"/>
      <point x="155" y="-82"/>
      <point x="175" y="-95"/>
      <point x="175" y="-122" type="curve" smooth="yes"/>
      <point x="175" y="-148"/>
      <point x="155" y="-162"/>
      <point x="122" y="-162" type="curve" smooth="yes"/>
      <point x="102" y="-162"/>
      <point x="74" y="-157"/>
      <point x="54" y="-151" type="curve"/>
    </contour>
  </outline>
</glyph>
<glyph name="ogonekcomb" format="2">
  <advance width="209"/>
  <unicode hex="0328"/>
  <anchor x="198" y="0" name="_ogonek"/>
  <outline>
    <contour>
      <point x="204" y="-180" type="line"/>
      <point x="161" y="-166"/>
      <point x="140" y="-135"/>
      <point x="140" y="-101" type="curve" smooth="yes"/>
      <point x="140" y="-64"/>
      <point x="164" y="-22"/>
      <point x="203" y="2" type="curve"/>
      <point x="170" y="5" type="line"/>
      <point x="81" y="-11"/>
      <point x="30" y="-53"/>
      <point x="30" y="-106" type="curve" smooth="yes"/>
      <point x="30" y="-156"/>
      <point x="74" y="-193"/>
      <point x="147" y="-203" type="curve"/>
    </contour>
  </outline>
</glyph>
<glyph name="gamma" format="2">
  <advance width="543"/>
  <unicode hex="03B3"/>
  <anchor x="272" y="520" name="topgr"/>
  <outline>
    <contour>
      <point x="199" y="-200" type="line"/>
      <point x="344" y="-200" type="line"/>
      <point x="344" y="70" type="line"/>
      <point x="337" y="-16" type="line"/>
      <point x="528" y="500" type="line"/>
      <point x="372" y="500" type="line"/>
      <point x="267" y="165" type="line"/>
      <point x="276" y="165" type="line"/>
      <point x="171" y="500" type="line"/>
      <point x="15" y="500" type="line"/>
      <point x="206" y="-16" type="line"/>
      <point x="199" y="70" type="line"/>
    </contour>
  </outline>
</glyph>
<glyph name="nu" format="2">
  <advance width="595"/>
  <unicode hex="03BD"/>
  <outline>
    <contour>
      <point x="204" y="-19" type="line"/>
      <point x="15" y="500" type="line"/>
      <point x="169" y="500" type="line"/>
      <point x="301" y="93" type="line"/>
      <point x="366" y="104"/>
      <point x="401" y="154"/>
      <point x="401" y="270" type="curve" smooth="yes"/>
      <point x="401" y="359"/>
      <point x="380" y="439"/>
      <point x="345" y="500" type="curve"/>
      <point x="485" y="500" type="line"/>
      <point x="520" y="448"/>
      <point x="546" y="362"/>
      <point x="546" y="266" type="curve" smooth="yes"/>
      <point x="546" y="89"/>
      <point x="458" y="-19"/>
      <point x="294" y="-19" type="curve" smooth="yes"/>
    </contour>
  </outline>
</glyph>
<glyph name="xi" format="2">
  <advance width="529"/>
  <unicode hex="03BE"/>
  <outline>
    <contour>
      <point x="72" y="590" type="line"/>
      <point x="435" y="590" type="line"/>
      <point x="435" y="700" type="line"/>
      <point x="72" y="700" type="line"/>
    </contour>
    <contour>
      <point x="462.567" y="-200" type="line"/>
      <point x="483.39" y="-180.137"/>
      <point x="508" y="-139.419"/>
      <point x="508" y="-82.811" type="curve" smooth="yes"/>
      <point x="508" y="8.5567"/>
      <point x="441.898" y="89"/>
      <point x="308.692" y="89" type="curve" smooth="yes"/>
      <point x="226.565" y="89"/>
      <point x="184.5" y="115"/>
      <point x="184.5" y="164.484" type="curve" smooth="yes"/>
      <point x="184.5" y="234.935"/>
      <point x="268.669" y="271"/>
      <point x="433" y="271" type="curve"/>
      <point x="433" y="371" type="line"/>
      <point x="297.682" y="371"/>
      <point x="220.5" y="409.174"/>
      <point x="220.5" y="474.472" type="curve" smooth="yes"/>
      <point x="220.5" y="537.761"/>
      <point x="294.674" y="578.95"/>
      <point x="434" y="590" type="curve"/>
      <point x="418" y="633" type="line"/>
      <point x="204.312" y="625.827"/>
      <point x="75.5" y="561.269"/>
      <point x="75.5" y="459.82" type="curve" smooth="yes"/>
      <point x="75.5" y="389.113"/>
      <point x="138.317" y="343"/>
      <point x="247" y="326" type="curve"/>
      <point x="114.32" y="321"/>
      <point x="39.5" y="258.093"/>
      <point x="39.5" y="150.886" type="curve" smooth="yes"/>
      <point x="39.5" y="41.9067"/>
      <point x="118.758" y="-21"/>
      <point x="255.657" y="-21" type="curve" smooth="yes"/>
      <point x="353.443" y="-21"/>
      <point x="373" y="-57"/>
      <point x="373" y="-101" type="curve" smooth="yes"/>
      <point x="373" y="-143"/>
      <point x="356" y="-166"/>
      <point x="331" y="-200" type="curve"/>
    </contour>
  </outline>
</glyph>
<glyph name="pi" format="2">
  <advance width="645"/>
  <unicode hex="03C0"/>
  <anchor x="322" y="520" name="topgr"/>
  <outline>
    <contour>
      <point x="95" y="0" type="line"/>
      <point x="240" y="0" type="line"/>
      <point x="240" y="390" type="line"/>
      <point x="393" y="390" type="line"/>
      <point x="393" y="165.073" type="line" smooth="yes"/>
      <point x="393" y="34.1808"/>
      <point x="436.898" y="0"/>
      <point x="605" y="0" type="curve"/>
      <point x="605" y="110" type="line"/>
      <point x="555" y="110"/>
      <point x="538" y="124.933"/>
      <point x="538" y="169.733" type="curve" smooth="yes"/>
      <point x="538" y="390" type="line"/>
      <point x="606" y="390" type="line"/>
      <point x="606" y="500" type="line"/>
      <point x="29" y="500" type="line"/>
      <point x="29" y="390" type="line"/>
      <point x="95" y="390" type="line"/>
    </contour>
  </outline>
</glyph>
<glyph name="rho" format="2">
  <advance width="630"/>
  <unicode hex="03C1"/>
  <anchor x="322" y="520" name="topgr"/>
  <outline>
    <contour>
      <point x="73" y="-200" type="line"/>
      <point x="218" y="-200" type="line"/>
      <point x="218" y="274" type="line"/>
      <point x="73" y="251" type="line"/>
    </contour>
    <contour>
      <point x="89" y="250" type="line"/>
      <point x="115" y="229"/>
      <point x="147" y="199"/>
      <point x="171" y="192" type="curve"/>
      <point x="161" y="70"/>
      <point x="228" y="-20"/>
      <point x="350" y="-20" type="curve" smooth="yes"/>
      <point x="484" y="-20"/>
      <point x="580" y="90"/>
      <point x="580" y="256" type="curve" smooth="yes"/>
      <point x="580" y="421"/>
      <point x="485" y="520"/>
      <point x="325" y="520" type="curve" smooth="yes"/>
      <point x="156" y="520"/>
      <point x="73" y="409"/>
      <point x="73" y="247" type="curve"/>
    </contour>
    <contour>
      <point x="328" y="90" type="curve" smooth="yes"/>
      <point x="260" y="90"/>
      <point x="218" y="150"/>
      <point x="218" y="258" type="curve" smooth="yes"/>
      <point x="218" y="360"/>
      <point x="255" y="410"/>
      <point x="322" y="410" type="curve" smooth="yes"/>
      <point x="396" y="410"/>
      <point x="435" y="350"/>
      <point x="435" y="251" type="curve" smooth="yes"/>
      <point x="435" y="150"/>
      <point x="395" y="90"/>
    </contour>
  </outline>
</glyph>
<glyph name="tau" format="2">
  <advance width="421"/>
  <unicode hex="03C4"/>
  <anchor x="210" y="520" name="topgr"/>
  <outline>
    <contour>
      <point x="35" y="390" type="line"/>
      <point x="379" y="390" type="line"/>
      <point x="379" y="500" type="line"/>
      <point x="35" y="500" type="line"/>
    </contour>
    <contour>
      <point x="339" y="110" type="line"/>
      <point x="292" y="110"/>
      <point x="283" y="125"/>
      <point x="283" y="187" type="curve" smooth="yes"/>
      <point x="283" y="500" type="line"/>
      <point x="138" y="500" type="line"/>
      <point x="138" y="153" type="line" smooth="yes"/>
      <point x="138" y="47"/>
      <point x="182" y="0"/>
      <point x="301" y="0" type="curve" smooth="yes"/>
      <point x="339" y="0" type="line"/>
    </contour>
  </outline>
</glyph>
<glyph name="Ljecyr" format="2">
  <advance width="1014"/>
  <unicode hex="0409"/>
  <outline>
    <contour>
      <point x="29" y="9" type="line"/>
      <point x="70" y="-9"/>
      <point x="98" y="-20"/>
      <point x="149" y="-20" type="curve" smooth="yes"/>
      <point x="271.702" y="-20"/>
      <point x="312.609" y="44.6112"/>
      <point x="323.009" y="355.05" type="curve" smooth="yes"/>
      <point x="325.153" y="419.054"/>
      <point x="326" y="493.508"/>
      <point x="326" y="580" type="curve"/>
      <point x="507" y="580" type="line"/>
      <point x="507" y="0" type="line"/>
      <point x="726" y="0" type="line" smooth="yes"/>
      <point x="894" y="0"/>
      <point x="975" y="80.3902"/>
      <point x="975" y="225.502" type="curve" smooth="yes"/>
      <point x="975" y="374.946"/>
      <point x="889" y="444"/>
      <point x="726" y="444" type="curve" smooth="yes"/>
      <point x="653" y="444" type="line"/>
      <point x="653" y="700" type="line"/>
      <point x="180" y="700" type="line"/>
      <point x="180" y="616.942"/>
      <point x="179.655" y="544.547"/>
      <point x="178.776" y="481.644" type="curve" smooth="yes"/>
      <point x="174.693" y="189.355"/>
      <point x="159.083" y="102"/>
      <point x="113" y="102" type="curve" smooth="yes"/>
      <point x="97" y="102"/>
      <point x="81" y="112"/>
      <point x="55" y="130" type="curve"/>
    </contour>
    <contour>
      <point x="653" y="120" type="line"/>
      <point x="653" y="324" type="line"/>
      <point x="693" y="324" type="line" smooth="yes"/>
      <point x="792" y="324"/>
      <point x="830" y="295.2"/>
      <point x="830" y="219.6" type="curve" smooth="yes"/>
      <point x="830" y="145.2"/>
      <point x="793" y="120"/>
      <point x="687" y="120" type="curve" smooth="yes"/>
    </contour>
  </outline>
</glyph>
<glyph name="Dzhecyr" format="2">
  <advance width="683"/>
  <unicode hex="040F"/>
  <outline>
    <contour>
      <point x="77" y="0" type="line"/>
      <point x="285" y="0" type="line"/>
      <point x="297" y="-38"/>
      <point x="298" y="-119"/>
      <point x="287" y="-158" type="curve"/>
      <point x="402" y="-158" type="line"/>
      <point x="415" y="-105"/>
      <point x="414" y="-52"/>
      <point x="398" y="0" type="curve"/>
      <point x="606" y="0" type="line"/>
      <point x="606" y="700" type="line"/>
      <point x="460" y="700" type="line"/>
      <point x="460" y="121" type="line"/>
      <point x="223" y="121" type="line"/>
      <point x="223" y="700" type="line"/>
      <point x="77" y="700" type="line"/>
    </contour>
  </outline>
</glyph>
<glyph name="Ucyr" format="2">
  <advance width="612"/>
  <unicode hex="0423"/>
  <anchor x="306" y="719" name="top"/>
  <anchor x="317" y="-20" name="bottom"/>
  <outline>
    <contour>
      <point x="81" y="-80" type="line"/>
      <point x="224" y="-80"/>
      <point x="305" y="-54"/>
      <point x="339" y="36" type="curve" smooth="yes"/>
      <point x="594" y="700" type="line"/>
      <point x="437" y="700" type="line"/>
      <point x="235" y="118" type="line" smooth="yes"/>
      <point x="210.936" y="48.6679"/>
      <point x="151" y="41"/>
      <point x="81" y="40" type="curve"/>
    </contour>
    <contour>
      <point x="223" y="138" type="line"/>
      <point x="304" y="138" type="line"/>
      <point x="355" y="142" type="line"/>
      <point x="173" y="700" type="line"/>
      <point x="18" y="700" type="line"/>
    </contour>
  </outline>
</glyph>
<glyph name="Yucyr" format="2">
  <advance width="1090"/>
  <unicode hex="042E"/>
  <anchor x="545" y="719" name="top"/>
  <outline>
    <contour>
      <point x="208" y="311" type="line"/>
      <point x="358" y="311" type="line"/>
      <point x="358" y="431" type="line"/>
      <point x="208" y="431" type="line"/>
    </contour>
    <contour>
      <point x="693.986" y="104" type="curve" smooth="yes" name="dv02"/>
      <point x="573.156" y="104"/>
      <point x="486" y="189.952"/>
      <point x="486" y="352.964" type="curve" smooth="yes"/>
      <point x="486" y="510.048"/>
      <point x="567.213" y="596"/>
      <point x="690.024" y="596" type="curve" smooth="yes" name="dv03"/>
      <point x="813.825" y="596"/>
      <point x="899" y="504.12"/>
      <point x="899" y="346.048" type="curve" smooth="yes" name="dv05"/>
      <point x="899" y="183.036"/>
      <point x="815.806" y="104"/>
    </contour>
    <contour>
      <point x="692" y="-20" type="curve" smooth="yes" name="dv01"/>
      <point x="916" y="-20"/>
      <point x="1047" y="124"/>
      <point x="1047" y="350" type="curve" smooth="yes" name="dv06"/>
      <point x="1047" y="567"/>
      <point x="911" y="720"/>
      <point x="693" y="720" type="curve" smooth="yes" name="dv04"/>
      <point x="475" y="720"/>
      <point x="338" y="570"/>
      <point x="338" y="350" type="curve" smooth="yes"/>
      <point x="338" y="122"/>
      <point x="473" y="-20"/>
    </contour>
    <contour>
      <point x="77" y="0" type="line" name="ab01"/>
      <point x="223" y="0" type="line"/>
      <point x="223" y="700" type="line" name="at01"/>
      <point x="77" y="700" type="line"/>
    </contour>
  </outline>
</glyph>
<glyph name="Yacyr" format="2">
  <advance width="648"/>
  <unicode hex="042F"/>
  <anchor x="324" y="719" name="top"/>
  <anchor x="324" y="-20" name="bottom"/>
  <outline>
    <contour>
      <point x="444.5" y="0" type="line" name="dv01"/>
      <point x="589.5" y="0" type="line"/>
      <point x="589.5" y="700" type="line"/>
      <point x="302.254" y="700" type="line" smooth="yes" name="at01"/>
      <point x="135.036" y="700"/>
      <point x="34.5" y="615"/>
      <point x="34.5" y="476" type="curve" smooth="yes"/>
      <point x="34.5" y="334"/>
      <point x="139.406" y="244"/>
      <point x="302.935" y="244" type="curve" smooth="yes"/>
      <point x="558" y="244" type="line" name="ab01"/>
      <point x="558" y="364" type="line" name="sv01"/>
      <point x="351.545" y="364" type="line" smooth="yes"/>
      <point x="229.55" y="364"/>
      <point x="179.5" y="396"/>
      <point x="179.5" y="472" type="curve" smooth="yes"/>
      <point x="179.5" y="548"/>
      <point x="230.584" y="580"/>
      <point x="355.102" y="580" type="curve" smooth="yes"/>
      <point x="444.5" y="580" type="line" name="dv02"/>
    </contour>
    <contour>
      <point x="31" y="0" type="line" name="ab02"/>
      <point x="189" y="0" type="line"/>
      <point x="352" y="281" type="line"/>
      <point x="221" y="333" type="line"/>
    </contour>
  </outline>
</glyph>
<glyph name="gecyr" format="2">
  <advance width="441"/>
  <unicode hex="0433"/>
  <anchor x="241" y="520" name="top"/>
  <anchor x="241" y="-20" name="bottom"/>
  <outline>
    <contour>
      <point x="74" y="0" type="line"/>
      <point x="219" y="0" type="line"/>
      <point x="219" y="390" type="line"/>
      <point x="414" y="390" type="line"/>
      <point x="414" y="500" type="line"/>
      <point x="74" y="500" type="line"/>
    </contour>
  </outline>
</glyph>
<glyph name="icyr" format="2">
  <advance width="629"/>
  <unicode hex="0438"/>
  <anchor x="315" y="520" name="top"/>
  <anchor x="315" y="-20" name="bottom"/>
  <outline>
    <contour>
      <point x="70" y="0" type="line"/>
      <point x="200" y="0" type="line"/>
      <point x="414" y="284" type="line"/>
      <point x="414" y="0" type="line"/>
      <point x="559" y="0" type="line"/>
      <point x="559" y="500" type="line"/>
      <point x="429" y="500" type="line"/>
      <point x="215" y="216" type="line"/>
      <point x="215" y="500" type="line"/>
      <point x="70" y="500" type="line"/>
    </contour>
  </outline>
</glyph>
<glyph name="emcyr" format="2">
  <advance width="689"/>
  <unicode hex="043C"/>
  <outline>
    <contour>
      <point x="70" y="0" type="line"/>
      <point x="215" y="0" type="line"/>
      <point x="215" y="253" type="line"/>
      <point x="309" y="90" type="line"/>
      <point x="380" y="90" type="line"/>
      <point x="474" y="253" type="line"/>
      <point x="474" y="0" type="line"/>
      <point x="619" y="0" type="line"/>
      <point x="619" y="500" type="line"/>
      <point x="488" y="500" type="line"/>
      <point x="344" y="251" type="line"/>
      <point x="200" y="500" type="line"/>
      <point x="70" y="500" type="line"/>
    </contour>
  </outline>
</glyph>
<glyph name="checyr" format="2">
  <advance width="595"/>
  <unicode hex="0447"/>
  <anchor x="298" y="-20" name="bottom"/>
  <anchor x="298" y="520" name="top"/>
  <outline>
    <contour>
      <point x="380" y="0" type="line"/>
      <point x="525" y="0" type="line"/>
      <point x="525" y="500" type="line"/>
      <point x="380" y="500" type="line"/>
      <point x="380" y="359" type="line" smooth="yes"/>
      <point x="380" y="287.86"/>
      <point x="324" y="254"/>
      <point x="277" y="254" type="curve" smooth="yes"/>
      <point x="233.41" y="254"/>
      <point x="211" y="279.18"/>
      <point x="211" y="339.82" type="curve" smooth="yes"/>
      <point x="211" y="500" type="line"/>
      <point x="66" y="500" type="line"/>
      <point x="66" y="340" type="line" smooth="yes"/>
      <point x="66" y="203"/>
      <point x="155" y="144"/>
      <point x="241.6" y="144" type="curve" smooth="yes"/>
      <point x="297.75" y="144"/>
      <point x="352.24" y="171.31"/>
      <point x="380" y="223.89" type="curve"/>
    </contour>
  </outline>
</glyph>
<glyph name="eight.superior" format="2">
  <advance width="410"/>
  <unicode hex="2078"/>
  <outline>
    <contour>
      <point x="146" y="599" type="curve"/>
      <point x="68" y="586"/>
      <point x="21" y="540"/>
      <point x="21" y="471" type="curve" smooth="yes"/>
      <point x="21" y="388"/>
      <point x="88" y="339"/>
      <point x="207" y="339" type="curve" smooth="yes"/>
      <point x="325" y="339"/>
      <point x="389" y="388"/>
      <point x="389" y="472" type="curve" smooth="yes"/>
      <point x="389" y="542"/>
      <point x="345" y="586"/>
      <point x="268" y="599" type="curve"/>
      <point x="331" y="612"/>
      <point x="370" y="654"/>
      <point x="370" y="709" type="curve" smooth="yes"/>
      <point x="370" y="783"/>
      <point x="300" y="832"/>
      <point x="202" y="832" type="curve" smooth="yes"/>
      <point x="106" y="832"/>
      <point x="40" y="785"/>
      <point x="40" y="711" type="curve" smooth="yes"/>
      <point x="40" y="654"/>
      <point x="80" y="613"/>
    </contour>
    <contour>
      <point x="125" y="490" type="curve" smooth="yes"/>
      <point x="125" y="536"/>
      <point x="156" y="561"/>
      <point x="206" y="561" type="curve" smooth="yes"/>
      <point x="253" y="561"/>
      <point x="284" y="538"/>
      <point x="284" y="491" type="curve" smooth="yes"/>
      <point x="284" y="448"/>
      <point x="258" y="421"/>
      <point x="205" y="421" type="curve" smooth="yes"/>
      <point x="152" y="421"/>
      <point x="125" y="448"/>
    </contour>
    <contour>
      <point x="145" y="695" type="curve" smooth="yes"/>
      <point x="145" y="727"/>
      <point x="170" y="750"/>
      <point x="206" y="750" type="curve" smooth="yes"/>
      <point x="241" y="750"/>
      <point x="265" y="729"/>
      <point x="265" y="697" type="curve" smooth="yes"/>
      <point x="265" y="665"/>
      <point x="240" y="641"/>
      <point x="204" y="641" type="curve" smooth="yes"/>
      <point x="169" y="641"/>
      <point x="145" y="663"/>
    </contour>
  </outline>
</glyph>
<glyph name="Ohm" format="2">
  <advance width="800"/>
  <unicode hex="2126"/>
  <anchor x="-10" y="500" name="topgr"/>
  <outline>
    <contour>
      <point x="61" y="0" type="line"/>
      <point x="360" y="0" type="line"/>
      <point x="360" y="120" type="line"/>
      <point x="249" y="170.098"/>
      <point x="188" y="260.949"/>
      <point x="188" y="378.025" type="curve" smooth="yes"/>
      <point x="188" y="509.149"/>
      <point x="266" y="600"/>
      <point x="395" y="600" type="curve" smooth="yes"/>
      <point x="527" y="600"/>
      <point x="612" y="505.446"/>
      <point x="612" y="378.126" type="curve" smooth="yes"/>
      <point x="612" y="265.785"/>
      <point x="553" y="173.104"/>
      <point x="439" y="120" type="curve"/>
      <point x="439" y="0" type="line"/>
      <point x="738" y="0" type="line"/>
      <point x="738" y="120" type="line"/>
      <point x="590" y="120" type="line"/>
      <point x="692" y="161.068"/>
      <point x="757" y="272.254"/>
      <point x="757" y="397.462" type="curve" smooth="yes"/>
      <point x="757" y="586.778"/>
      <point x="609" y="720"/>
      <point x="400" y="720" type="curve" smooth="yes"/>
      <point x="189" y="720"/>
      <point x="43" y="584.775"/>
      <point x="43" y="393.456" type="curve" smooth="yes"/>
      <point x="43" y="267.245"/>
      <point x="106" y="161.068"/>
      <point x="209" y="120" type="curve"/>
      <point x="61" y="120" type="line"/>
    </contour>
  </outline>
</glyph>
<glyph name="summation" format="2">
  <advance width="662"/>
  <unicode hex="2211"/>
  <outline>
    <contour>
      <point x="30" y="-124" type="line"/>
      <point x="621" y="-124" type="line"/>
      <point x="621" y="-4" type="line"/>
      <point x="250" y="-4" type="line"/>
      <point x="544" y="286" type="line"/>
      <point x="250" y="580" type="line"/>
      <point x="621" y="580" type="line"/>
      <point x="621" y="700" type="line"/>
      <point x="30" y="700" type="line"/>
      <point x="30" y="610" type="line"/>
      <point x="352" y="286" type="line"/>
      <point x="30" y="-34" type="line"/>
    </contour>
  </outline>
</glyph>
<glyph name="Ccedilla.ss10" format="2">
  <advance width="735"/>
  <anchor x="387" y="719" name="top"/>
  <anchor x="387" y="-217" name="bottom"/>
  <outline>
    <contour>
      <point x="653" y="255" type="line"/>
      <point x="574" y="134.221"/>
      <point x="497" y="100"/>
      <point x="409" y="100" type="curve" smooth="yes"/>
      <point x="270" y="100"/>
      <point x="188" y="185.341"/>
      <point x="188" y="347.992" type="curve" smooth="yes"/>
      <point x="188" y="500.602"/>
      <point x="259" y="600"/>
      <point x="401" y="600" type="curve" smooth="yes"/>
      <point x="485" y="600"/>
      <point x="562" y="565.779"/>
      <point x="644" y="445" type="curve"/>
      <point x="683" y="583" type="line"/>
      <point x="613" y="673"/>
      <point x="515" y="720"/>
      <point x="395" y="720" type="curve" smooth="yes"/>
      <point x="184" y="720"/>
      <point x="43" y="573"/>
      <point x="43" y="357" type="curve" smooth="yes"/>
      <point x="43" y="137"/>
      <point x="190" y="-20"/>
      <point x="405" y="-20" type="curve" smooth="yes"/>
      <point x="522" y="-20"/>
      <point x="622" y="27"/>
      <point x="692" y="117" type="curve"/>
    </contour>
    <contour>
      <point x="270" y="-204" type="line"/>
      <point x="294" y="-212"/>
      <point x="328" y="-217"/>
      <point x="367" y="-217" type="curve" smooth="yes"/>
      <point x="462" y="-217"/>
      <point x="511" y="-187"/>
      <point x="511" y="-134" type="curve" smooth="yes"/>
      <point x="511" y="-88"/>
      <point x="475" y="-63"/>
      <point x="413" y="-63" type="curve"/>
      <point x="457.665" y="17.2739" type="line"/>
      <point x="371.665" y="17.2739" type="line"/>
      <point x="314" y="-95" type="line"/>
      <point x="330" y="-93"/>
      <point x="343" y="-91"/>
      <point x="357" y="-91" type="curve" smooth="yes"/>
      <point x="391" y="-91"/>
      <point x="411" y="-104"/>
      <point x="411" y="-131" type="curve" smooth="yes"/>
      <point x="411" y="-157"/>
      <point x="391" y="-171"/>
      <point x="358" y="-171" type="curve" smooth="yes"/>
      <point x="338" y="-171"/>
      <point x="310" y="-166"/>
      <point x="290" y="-160" type="curve"/>
    </contour>
  </outline>
</glyph>
<glyph name="Eng.ss10" format="2">
  <advance width="752"/>
  <anchor x="376" y="719" name="top"/>
  <anchor x="370" y="-210" name="bottom"/>
  <outline>
    <contour>
      <point x="77.5" y="0" type="line"/>
      <point x="222.5" y="0" type="line" name="ab01"/>
      <point x="222.5" y="468" type="line" name="iv01"/>
      <point x="538.5" y="0" type="line" name="ab02"/>
      <point x="674.5" y="90.4143" type="line"/>
      <point x="675" y="700" type="line" name="at01"/>
      <point x="529.75" y="700" type="line"/>
      <point x="529.75" y="232" type="line" name="iv02"/>
      <point x="213.575" y="700" type="line" name="at02"/>
      <point x="77.5" y="700" type="line"/>
    </contour>
    <contour>
      <point x="232.75" y="-94" type="line"/>
      <point x="289.6" y="-180"/>
      <point x="358.267" y="-231"/>
      <point x="462.172" y="-231" type="curve" smooth="yes"/>
      <point x="597.701" y="-231"/>
      <point x="674.5" y="-143"/>
      <point x="674.5" y="20" type="curve" smooth="yes"/>
      <point x="674.5" y="489" type="line"/>
      <point x="530.25" y="489" type="line"/>
      <point x="530.25" y="33.2404" type="line" smooth="yes"/>
      <point x="530.25" y="-72.9366"/>
      <point x="512.643" y="-111"/>
      <point x="445.57" y="-111" type="curve" smooth="yes"/>
      <point x="371.79" y="-111"/>
      <point x="324.839" y="-63.6948"/>
      <point x="271.75" y="44" type="curve"/>
    </contour>
  </outline>
</glyph>
<glyph name="Germandbls.ss10" format="2">
  <advance width="723"/>
  <outline>
    <contour>
      <point x="74" y="0" type="line"/>
      <point x="220" y="0" type="line"/>
      <point x="220" y="450" type="line" smooth="yes"/>
      <point x="220" y="541"/>
      <point x="254" y="601"/>
      <point x="345" y="601" type="curve" smooth="yes"/>
      <point x="386" y="601"/>
      <point x="417" y="595"/>
      <point x="450" y="583" type="curve"/>
      <point x="355" y="515" type="line" smooth="yes"/>
      <point x="307" y="480"/>
      <point x="292" y="436"/>
      <point x="292" y="401" type="curve" smooth="yes"/>
      <point x="292" y="319.854"/>
      <point x="363.992" y="288.752"/>
      <point x="430.084" y="260.198" type="curve" smooth="yes"/>
      <point x="486.166" y="235.969"/>
      <point x="538" y="213.575"/>
      <point x="538" y="164" type="curve" smooth="yes"/>
      <point x="538" y="126"/>
      <point x="513" y="100"/>
      <point x="462" y="100" type="curve" smooth="yes"/>
      <point x="402" y="100"/>
      <point x="345" y="131"/>
      <point x="304" y="221" type="curve"/>
      <point x="267" y="88" type="line"/>
      <point x="312" y="18"/>
      <point x="383" y="-20"/>
      <point x="469" y="-20" type="curve" smooth="yes"/>
      <point x="626" y="-20"/>
      <point x="684" y="80"/>
      <point x="684" y="168" type="curve" smooth="yes"/>
      <point x="684" y="269.525"/>
      <point x="602.672" y="305.01"/>
      <point x="532.788" y="335.503" type="curve" smooth="yes"/>
      <point x="480.147" y="358.471"/>
      <point x="434" y="378.607"/>
      <point x="434" y="422" type="curve" smooth="yes"/>
      <point x="434" y="449"/>
      <point x="447" y="469"/>
      <point x="476" y="494" type="curve" smooth="yes"/>
      <point x="638" y="635" type="line"/>
      <point x="570" y="688"/>
      <point x="468" y="720"/>
      <point x="368" y="720" type="curve" smooth="yes"/>
      <point x="158" y="720"/>
      <point x="74" y="631"/>
      <point x="74" y="499" type="curve" smooth="yes"/>
    </contour>
  </outline>
</glyph>
<glyph name="J.ss07" format="2">
  <advance width="400"/>
  <anchor x="268" y="719" name="top"/>
  <anchor x="168" y="-89" name="bottom"/>
  <outline>
    <contour>
      <point x="20" y="-144" type="line"/>
      <point x="252" y="-144"/>
      <point x="336" y="-66"/>
      <point x="336" y="148" type="curve" smooth="yes"/>
      <point x="336" y="700" type="line"/>
      <point x="190" y="700" type="line"/>
      <point x="190" y="129" type="line" smooth="yes"/>
      <point x="190" y="4"/>
      <point x="144" y="-24"/>
      <point x="20" y="-24" type="curve"/>
    </contour>
  </outline>
</glyph>
<glyph name="J.ss10" format="2">
  <advance width="578"/>
  <anchor x="445" y="719" name="top"/>
  <anchor x="266" y="-20" name="bottom"/>
  <outline>
    <contour>
      <point x="31" y="117" type="line"/>
      <point x="87.941" y="31"/>
      <point x="163.862" y="-20"/>
      <point x="278.743" y="-20" type="curve" smooth="yes"/>
      <point x="428.588" y="-20"/>
      <point x="513.5" y="68"/>
      <point x="513.5" y="231" type="curve" smooth="yes"/>
      <point x="513.5" y="700" type="line"/>
      <point x="368.5" y="700" type="line"/>
      <point x="368.5" y="244.24" type="line" smooth="yes"/>
      <point x="368.5" y="138.063"/>
      <point x="347.465" y="100"/>
      <point x="267.331" y="100" type="curve" smooth="yes"/>
      <point x="179.183" y="100"/>
      <point x="123.089" y="147.305"/>
      <point x="70" y="255" type="curve"/>
    </contour>
  </outline>
</glyph>
<glyph name="a.ss10" format="2">
  <advance width="568"/>
  <anchor x="284" y="520" name="top"/>
  <anchor x="284" y="-20" name="bottom"/>
  <anchor x="498" y="-2" name="ogonek"/>
  <outline>
    <contour>
      <point x="358" y="91" type="line"/>
      <point x="358" y="243" type="line"/>
      <point x="340" y="212"/>
      <point x="298" y="192"/>
      <point x="252" y="192" type="curve" smooth="yes"/>
      <point x="204" y="192"/>
      <point x="180" y="171"/>
      <point x="180" y="139" type="curve" smooth="yes"/>
      <point x="180" y="110"/>
      <point x="201" y="90"/>
      <point x="238" y="90" type="curve" smooth="yes"/>
      <point x="302" y="90"/>
      <point x="358" y="149"/>
      <point x="358" y="206" type="curve"/>
      <point x="376" y="142" type="line"/>
      <point x="361" y="68"/>
      <point x="304" y="-20"/>
      <point x="196.898" y="-20" type="curve" smooth="yes"/>
      <point x="107" y="-20"/>
      <point x="35" y="42"/>
      <point x="35" y="138" type="curve" smooth="yes"/>
      <point x="35" y="235"/>
      <point x="110" y="284"/>
      <point x="230" y="284" type="curve" smooth="yes"/>
      <point x="316" y="284"/>
      <point x="357" y="309"/>
      <point x="357" y="354" type="curve" smooth="yes"/>
      <point x="357" y="391"/>
      <point x="327.3" y="410"/>
      <point x="271.2" y="410" type="curve" smooth="yes"/>
      <point x="199.7" y="410"/>
      <point x="137" y="380"/>
      <point x="80" y="306" type="curve"/>
      <point x="49" y="422" type="line"/>
      <point x="85" y="480"/>
      <point x="173.221" y="520"/>
      <point x="281.397" y="520" type="curve" smooth="yes"/>
      <point x="417.93" y="520"/>
      <point x="503" y="456"/>
      <point x="503" y="352" type="curve" smooth="yes"/>
      <point x="503" y="-10" type="line"/>
    </contour>
  </outline>
</glyph>
<glyph name="ae.ss14" format="2">
  <advance width="867"/>
  <anchor x="431" y="500" name="top"/>
  <anchor x="431" y="-0" name="bottom"/>
  <outline>
    <contour>
      <point x="45.54" y="422" type="line"/>
      <point x="78.7082" y="480"/>
      <point x="160.892" y="520"/>
      <point x="261.665" y="520" type="curve" smooth="yes"/>
      <point x="330.234" y="520"/>
      <point x="384.858" y="501.38"/>
      <point x="421.77" y="467.94" type="curve"/>
      <point x="462.78" y="501.1"/>
      <point x="520.81" y="520"/>
      <point x="589.2" y="520" type="curve" smooth="yes"/>
      <point x="740.2" y="520"/>
      <point x="847.342" y="411"/>
      <point x="829.07" y="218" type="curve"/>
      <point x="478.67" y="218" type="line"/>
      <point x="478.67" y="132"/>
      <point x="532.42" y="90"/>
      <point x="608.27" y="90" type="curve" smooth="yes"/>
      <point x="681.23" y="90"/>
      <point x="731.15" y="122"/>
      <point x="779.15" y="201" type="curve"/>
      <point x="811.79" y="83" type="line"/>
      <point x="767.84" y="18"/>
      <point x="693.31" y="-20"/>
      <point x="595.33" y="-20" type="curve" smooth="yes"/>
      <point x="499.6" y="-20"/>
      <point x="429.87" y="16.29"/>
      <point x="387.83" y="78.43" type="curve"/>
      <point x="350.258" y="16.8276"/>
      <point x="286.624" y="-20"/>
      <point x="205.376" y="-20" type="curve" smooth="yes"/>
      <point x="99.957" y="-20"/>
      <point x="31.115" y="42"/>
      <point x="31.115" y="138" type="curve" smooth="yes"/>
      <point x="31.115" y="235"/>
      <point x="102.697" y="284"/>
      <point x="217.198" y="284" type="curve" smooth="yes"/>
      <point x="299.263" y="284"/>
      <point x="338.39" y="309"/>
      <point x="338.39" y="354" type="curve" smooth="yes"/>
      <point x="338.39" y="391"/>
      <point x="310.12" y="410"/>
      <point x="256.72" y="410" type="curve" smooth="yes"/>
      <point x="188.661" y="410"/>
      <point x="128.97" y="380"/>
      <point x="75" y="306" type="curve"/>
    </contour>
    <contour>
      <point x="340.09" y="243" type="line"/>
      <point x="322.803" y="212"/>
      <point x="282.483" y="192"/>
      <point x="239.857" y="192" type="curve" smooth="yes"/>
      <point x="195.362" y="192"/>
      <point x="173.115" y="171"/>
      <point x="173.115" y="139" type="curve" smooth="yes"/>
      <point x="173.115" y="110"/>
      <point x="192.818" y="90"/>
      <point x="227.521" y="90" type="curve" smooth="yes"/>
      <point x="295.062" y="90"/>
      <point x="340.09" y="136.4"/>
      <point x="340.09" y="206" type="curve" smooth="yes"/>
    </contour>
    <contour>
      <point x="687" y="311" type="line"/>
      <point x="687" y="355"/>
      <point x="658.3" y="410"/>
      <point x="586.55" y="410" type="curve" smooth="yes"/>
      <point x="516.74" y="410"/>
      <point x="480.39" y="359"/>
      <point x="480.39" y="311" type="curve"/>
    </contour>
  </outline>
</glyph>
<glyph name="ae.ss15" format="2">
  <advance width="861"/>
  <anchor x="430" y="500" name="top"/>
  <anchor x="430" y="-0" name="bottom"/>
  <outline>
    <contour>
      <point x="339.367" y="248" type="line"/>
      <point x="339.367" y="228"/>
      <point x="309.402" y="205"/>
      <point x="259.813" y="205" type="curve" smooth="yes"/>
      <point x="212.288" y="205"/>
      <point x="172" y="182.64"/>
      <point x="172" y="141.99" type="curve" smooth="yes"/>
      <point x="172" y="104.79"/>
      <point x="202.577" y="80"/>
      <point x="248.448" y="80" type="curve" smooth="yes"/>
      <point x="300.21" y="80"/>
      <point x="339.367" y="120.915"/>
      <point x="339.367" y="175" type="curve" smooth="yes"/>
    </contour>
    <contour>
      <point x="688.03" y="316" type="line"/>
      <point x="688.03" y="368.12"/>
      <point x="648.517" y="410"/>
      <point x="588.791" y="410" type="curve" smooth="yes"/>
      <point x="526.165" y="410"/>
      <point x="484.735" y="367.64"/>
      <point x="484.735" y="316" type="curve"/>
    </contour>
    <contour>
      <point x="52" y="421" type="line"/>
      <point x="104.062" y="486"/>
      <point x="173.805" y="520"/>
      <point x="264.17" y="520" type="curve" smooth="yes"/>
      <point x="332.146" y="520"/>
      <point x="386.13" y="500.74"/>
      <point x="423.02" y="467.69" type="curve"/>
      <point x="464.31" y="501.01"/>
      <point x="522.642" y="520"/>
      <point x="591.07" y="520" type="curve" smooth="yes"/>
      <point x="737" y="520"/>
      <point x="850.22" y="423.39"/>
      <point x="831.07" y="236" type="curve"/>
      <point x="484.367" y="236" type="line"/>
      <point x="484.367" y="141.301"/>
      <point x="540.076" y="90"/>
      <point x="616.265" y="90" type="curve" smooth="yes"/>
      <point x="695.829" y="90"/>
      <point x="747.608" y="117"/>
      <point x="796.51" y="174" type="curve"/>
      <point x="803.23" y="91" type="line"/>
      <point x="742.75" y="15"/>
      <point x="680.35" y="-20"/>
      <point x="604.51" y="-20" type="curve" smooth="yes"/>
      <point x="510.87" y="-20"/>
      <point x="438.48" y="16.78"/>
      <point x="393.56" y="78.44" type="curve"/>
      <point x="340.581" y="7.82155"/>
      <point x="271.825" y="-20"/>
      <point x="200.878" y="-20" type="curve" smooth="yes"/>
      <point x="99.1496" y="-20"/>
      <point x="27" y="37.2"/>
      <point x="27" y="138" type="curve" smooth="yes"/>
      <point x="27" y="233"/>
      <point x="99.32" y="293"/>
      <point x="224.614" y="293" type="curve" smooth="yes"/>
      <point x="303.059" y="293"/>
      <point x="339.735" y="313.17"/>
      <point x="339.735" y="354.52" type="curve" smooth="yes"/>
      <point x="339.735" y="392.85"/>
      <point x="307.059" y="410"/>
      <point x="252.958" y="410" type="curve" smooth="yes"/>
      <point x="194.765" y="410"/>
      <point x="137.606" y="390.73"/>
      <point x="59" y="337" type="curve"/>
    </contour>
  </outline>
</glyph>
<glyph name="aogonek.ss09" format="2">
  <advance width="570"/>
  <anchor x="290" y="520" name="top"/>
  <anchor x="285" y="-20" name="bottom"/>
  <outline>
    <contour>
      <point x="351" y="158.05" type="curve"/>
      <point x="334.04" y="185.03"/>
      <point x="299.23" y="202"/>
      <point x="257" y="202" type="curve" smooth="yes"/>
      <point x="211" y="202"/>
      <point x="186" y="182"/>
      <point x="186" y="146" type="curve" smooth="yes"/>
      <point x="186" y="111"/>
      <point x="210" y="90"/>
      <point x="253" y="90" type="curve" smooth="yes"/>
      <point x="300.18" y="90"/>
      <point x="340.73" y="116.91"/>
    </contour>
    <contour>
      <point x="351" y="0" type="line"/>
      <point x="351" y="64.54" type="line"/>
      <point x="325.25" y="10.55"/>
      <point x="276.26" y="-20"/>
      <point x="210.23" y="-20" type="curve" smooth="yes"/>
      <point x="111" y="-20"/>
      <point x="40" y="49"/>
      <point x="40" y="146" type="curve" smooth="yes"/>
      <point x="40" y="243"/>
      <point x="111" y="312"/>
      <point x="213" y="312" type="curve" smooth="yes"/>
      <point x="276.77" y="312"/>
      <point x="325.06" y="284.7"/>
      <point x="351" y="236.5" type="curve"/>
      <point x="351" y="340.83" type="line" smooth="yes"/>
      <point x="351" y="382.93"/>
      <point x="326" y="410"/>
      <point x="277" y="410" type="curve" smooth="yes" name="sv01"/>
      <point x="232" y="410"/>
      <point x="197" y="387"/>
      <point x="191" y="341" type="curve"/>
      <point x="56" y="341" type="line"/>
      <point x="65.08" y="457"/>
      <point x="155" y="520"/>
      <point x="283" y="520" type="curve" smooth="yes" name="at01"/>
      <point x="424" y="520"/>
      <point x="496" y="444"/>
      <point x="496" y="352" type="curve" smooth="yes"/>
      <point x="496" y="0" type="line"/>
    </contour>
    <contour>
      <point x="440" y="-205" type="line"/>
      <point x="367" y="-195"/>
      <point x="323" y="-158"/>
      <point x="323" y="-108" type="curve" smooth="yes"/>
      <point x="323" y="-55"/>
      <point x="374" y="-13"/>
      <point x="463" y="3" type="curve"/>
      <point x="496" y="0" type="line"/>
      <point x="457" y="-24"/>
      <point x="433" y="-66"/>
      <point x="433" y="-103" type="curve" smooth="yes"/>
      <point x="433" y="-137"/>
      <point x="454" y="-168"/>
      <point x="497" y="-182" type="curve"/>
    </contour>
  </outline>
</glyph>
<glyph name="braceleft.case" format="2">
  <advance width="366"/>
  <outline>
    <contour>
      <point x="331" y="-276" type="line"/>
      <point x="194.626" y="-208.35"/>
      <point x="148.5" y="-114.229"/>
      <point x="148.5" y="-15.2055" type="curve" smooth="yes"/>
      <point x="148.5" y="225" type="line" smooth="yes"/>
      <point x="148.5" y="296"/>
      <point x="90.7636" y="332"/>
      <point x="39" y="342" type="curve"/>
      <point x="39" y="359" type="line"/>
      <point x="110.673" y="370"/>
      <point x="148.5" y="432"/>
      <point x="148.5" y="482" type="curve" smooth="yes"/>
      <point x="148.5" y="664.027" type="line" smooth="yes"/>
      <point x="148.5" y="760.154"/>
      <point x="194.626" y="863.439"/>
      <point x="331" y="934" type="curve"/>
      <point x="344" y="901" type="line"/>
      <point x="282.392" y="869.229"/>
      <point x="265.5" y="792.363"/>
      <point x="265.5" y="669.378" type="curve" smooth="yes"/>
      <point x="265.5" y="489" type="line" smooth="yes"/>
      <point x="265.5" y="425"/>
      <point x="253.443" y="375"/>
      <point x="159" y="349" type="curve"/>
      <point x="256.458" y="321"/>
      <point x="265.5" y="263"/>
      <point x="265.5" y="199" type="curve" smooth="yes"/>
      <point x="265.5" y="-22.9779" type="line" smooth="yes"/>
      <point x="265.5" y="-142.279"/>
      <point x="282.392" y="-212.686"/>
      <point x="344" y="-243" type="curve"/>
    </contour>
  </outline>
</glyph>
<glyph name="ccedilla.ss12" format="2">
  <advance width="570"/>
  <anchor x="310" y="520" name="top"/>
  <anchor x="290" y="-218" name="bottom"/>
  <outline>
    <contour>
      <point x="513" y="174" type="line"/>
      <point x="462" y="117"/>
      <point x="408" y="90"/>
      <point x="344" y="90" type="curve" smooth="yes"/>
      <point x="248" y="90"/>
      <point x="194" y="155"/>
      <point x="194" y="255" type="curve" smooth="yes"/>
      <point x="194" y="353"/>
      <point x="244" y="410"/>
      <point x="343" y="410" type="curve" smooth="yes"/>
      <point x="402" y="410"/>
      <point x="446" y="391"/>
      <point x="514" y="337" type="curve"/>
      <point x="521" y="421" type="line"/>
      <point x="468" y="486"/>
      <point x="397" y="520"/>
      <point x="314" y="520" type="curve" smooth="yes"/>
      <point x="146" y="520"/>
      <point x="49" y="411"/>
      <point x="49" y="255" type="curve" smooth="yes"/>
      <point x="49" y="91"/>
      <point x="144" y="-20"/>
      <point x="313" y="-20" type="curve" smooth="yes"/>
      <point x="392" y="-20"/>
      <point x="457" y="15"/>
      <point x="520" y="91" type="curve"/>
    </contour>
    <contour>
      <point x="173" y="-205" type="line"/>
      <point x="197" y="-213"/>
      <point x="231" y="-218"/>
      <point x="270" y="-218" type="curve" smooth="yes"/>
      <point x="365" y="-218"/>
      <point x="414" y="-188"/>
      <point x="414" y="-135" type="curve" smooth="yes"/>
      <point x="414" y="-89"/>
      <point x="378" y="-64"/>
      <point x="316" y="-64" type="curve"/>
      <point x="360.665" y="16.2739" type="line"/>
      <point x="274.665" y="16.2739" type="line"/>
      <point x="217" y="-96" type="line"/>
      <point x="233" y="-94"/>
      <point x="246" y="-92"/>
      <point x="260" y="-92" type="curve" smooth="yes"/>
      <point x="294" y="-92"/>
      <point x="314" y="-105"/>
      <point x="314" y="-132" type="curve" smooth="yes"/>
      <point x="314" y="-158"/>
      <point x="294" y="-172"/>
      <point x="261" y="-172" type="curve" smooth="yes"/>
      <point x="241" y="-172"/>
      <point x="213" y="-167"/>
      <point x="193" y="-161" type="curve"/>
    </contour>
  </outline>
</glyph>
<glyph name="djecyr.ss11" format="2">
  <advance width="647"/>
  <outline>
    <contour>
      <point x="86" y="0" type="line"/>
      <point x="231" y="0" type="line"/>
      <point x="231" y="700" type="line"/>
      <point x="86" y="700" type="line"/>
    </contour>
    <contour>
      <point x="231" y="197" type="line" name="iv01"/>
      <point x="231" y="313.604"/>
      <point x="273" y="390"/>
      <point x="348" y="390" type="curve" smooth="yes" name="sv01"/>
      <point x="398" y="390"/>
      <point x="428" y="363.933"/>
      <point x="428" y="258.663" type="curve" smooth="yes"/>
      <point x="428" y="0" type="line" name="ab01"/>
      <point x="573" y="0" type="line"/>
      <point x="573" y="294" type="line" smooth="yes"/>
      <point x="573" y="442"/>
      <point x="504" y="500"/>
      <point x="401" y="500" type="curve" smooth="yes" name="at01"/>
      <point x="313" y="500"/>
      <point x="242" y="436"/>
      <point x="223" y="341" type="curve"/>
      <point x="224" y="262" type="line"/>
    </contour>
    <contour>
      <point x="16" y="580" type="line"/>
      <point x="397" y="580" type="line"/>
      <point x="397" y="616" type="line"/>
      <point x="16" y="616" type="line"/>
    </contour>
    <contour>
      <point x="296" y="-198" type="line"/>
      <point x="343" y="-212"/>
      <point x="357" y="-221"/>
      <point x="425" y="-221" type="curve" smooth="yes" name="dv01"/>
      <point x="520" y="-221"/>
      <point x="573" y="-174"/>
      <point x="573" y="-68" type="curve" smooth="yes"/>
      <point x="573" y="241" type="line"/>
      <point x="428" y="241" type="line" name="av01"/>
      <point x="428" y="-22" type="line" smooth="yes"/>
      <point x="428" y="-87"/>
      <point x="420" y="-108"/>
      <point x="383" y="-108" type="curve" smooth="yes" name="dv02"/>
      <point x="368" y="-108"/>
      <point x="340" y="-105"/>
      <point x="321" y="-96" type="curve"/>
    </contour>
  </outline>
</glyph>
<glyph name="four.osf" format="2">
  <advance width="685"/>
  <outline>
    <contour>
      <point x="26" y="1" type="line"/>
      <point x="376" y="1" type="line"/>
      <point x="376" y="-150" type="line"/>
      <point x="522" y="-150" type="line"/>
      <point x="522" y="1" type="line"/>
      <point x="654" y="1" type="line"/>
      <point x="654" y="122" type="line"/>
      <point x="522" y="122" type="line"/>
      <point x="522" y="550" type="line"/>
      <point x="352" y="550" type="line"/>
      <point x="26" y="67" type="line"/>
    </contour>
    <contour>
      <point x="209" y="122" type="line"/>
      <point x="376" y="370" type="line"/>
      <point x="376" y="122" type="line"/>
    </contour>
  </outline>
</glyph>
<glyph name="germandbls.ss12" format="2">
  <advance width="730"/>
  <outline>
    <contour>
      <point x="74" y="0" type="line"/>
      <point x="219" y="0" type="line"/>
      <point x="219" y="503" type="line" smooth="yes"/>
      <point x="219" y="585"/>
      <point x="240" y="640"/>
      <point x="326" y="640" type="curve" smooth="yes"/>
      <point x="392" y="640"/>
      <point x="423" y="608"/>
      <point x="423" y="557" type="curve" smooth="yes"/>
      <point x="423" y="467"/>
      <point x="326.5" y="451"/>
      <point x="326.5" y="362" type="curve" smooth="yes"/>
      <point x="326.5" y="230"/>
      <point x="537" y="220"/>
      <point x="537" y="137" type="curve" smooth="yes"/>
      <point x="537" y="113"/>
      <point x="519" y="90"/>
      <point x="465" y="90" type="curve" smooth="yes"/>
      <point x="403" y="90"/>
      <point x="328" y="120"/>
      <point x="271" y="174" type="curve"/>
      <point x="264" y="91" type="line"/>
      <point x="322" y="20"/>
      <point x="389" y="-20"/>
      <point x="488" y="-20" type="curve" smooth="yes"/>
      <point x="613" y="-20"/>
      <point x="682" y="43"/>
      <point x="682" y="136" type="curve" smooth="yes"/>
      <point x="682" y="300"/>
      <point x="471.5" y="279"/>
      <point x="471.5" y="374" type="curve" smooth="yes"/>
      <point x="471.5" y="438"/>
      <point x="568" y="441"/>
      <point x="568" y="558" type="curve" smooth="yes"/>
      <point x="568" y="681"/>
      <point x="461" y="750"/>
      <point x="317" y="750" type="curve" smooth="yes"/>
      <point x="173" y="750"/>
      <point x="74" y="681"/>
      <point x="74" y="535" type="curve" smooth="yes"/>
    </contour>
  </outline>
</glyph>
<glyph name="lira.ss10" format="2">
  <advance width="660"/>
  <outline>
    <contour>
      <point x="37" y="0" type="line"/>
      <point x="37" y="76" type="line"/>
      <point x="83" y="101"/>
      <point x="119" y="171"/>
      <point x="119" y="230" type="curve"/>
      <point x="41" y="230" type="line"/>
      <point x="41" y="290" type="line"/>
      <point x="119" y="290" type="line"/>
      <point x="119" y="377" type="line"/>
      <point x="41" y="377" type="line"/>
      <point x="41" y="437" type="line"/>
      <point x="119" y="437" type="line"/>
      <point x="119" y="624"/>
      <point x="220" y="720"/>
      <point x="368" y="720" type="curve" smooth="yes"/>
      <point x="485" y="720"/>
      <point x="571" y="672"/>
      <point x="634" y="583" type="curve"/>
      <point x="595" y="445" type="line"/>
      <point x="523" y="565"/>
      <point x="463" y="599"/>
      <point x="370" y="599" type="curve" smooth="yes"/>
      <point x="298" y="599"/>
      <point x="265" y="531"/>
      <point x="265" y="437" type="curve"/>
      <point x="476" y="437" type="line"/>
      <point x="476" y="377" type="line"/>
      <point x="265" y="377" type="line"/>
      <point x="265" y="290" type="line"/>
      <point x="476" y="290" type="line"/>
      <point x="476" y="230" type="line"/>
      <point x="265" y="230" type="line"/>
      <point x="265" y="162"/>
      <point x="248" y="142"/>
      <point x="152" y="120" type="curve"/>
      <point x="627" y="120" type="line"/>
      <point x="627" y="0" type="line"/>
    </contour>
  </outline>
</glyph>
<glyph name="ljecyr.ss08" format="2">
  <advance width="790"/>
  <outline>
    <contour>
      <point x="396" y="0" type="line"/>
      <point x="557" y="0" type="line" smooth="yes"/>
      <point x="691" y="0"/>
      <point x="740" y="64"/>
      <point x="740" y="154" type="curve" smooth="yes"/>
      <point x="740" y="244"/>
      <point x="690" y="305"/>
      <point x="556" y="305" type="curve" smooth="yes"/>
      <point x="362" y="305" type="line"/>
      <point x="362" y="195" type="line"/>
      <point x="527" y="195" type="line" smooth="yes"/>
      <point x="571" y="195"/>
      <point x="595" y="180"/>
      <point x="595" y="153" type="curve" smooth="yes"/>
      <point x="595" y="126"/>
      <point x="571" y="111"/>
      <point x="527" y="111" type="curve" smooth="yes"/>
      <point x="441" y="111" type="line"/>
    </contour>
    <contour>
      <point x="15" y="0" type="line"/>
      <point x="169" y="0" type="line"/>
      <point x="275" y="321" type="line"/>
      <point x="381" y="0" type="line"/>
      <point x="535" y="0" type="line"/>
      <point x="343" y="500" type="line"/>
      <point x="207" y="500" type="line"/>
    </contour>
  </outline>
</glyph>
<glyph name="nine.osf.ss12" format="2">
  <advance width="650"/>
  <outline>
    <contour>
      <point x="189" y="323" type="curve" smooth="yes"/>
      <point x="189" y="244"/>
      <point x="237" y="199"/>
      <point x="317" y="199" type="curve" smooth="yes"/>
      <point x="405" y="199"/>
      <point x="464" y="253"/>
      <point x="464" y="335" type="curve" smooth="yes"/>
      <point x="464" y="409"/>
      <point x="415" y="451"/>
      <point x="329" y="451" type="curve" smooth="yes"/>
      <point x="238" y="451"/>
      <point x="189" y="403"/>
    </contour>
    <contour>
      <point x="57" y="61" type="line"/>
      <point x="138" y="-17"/>
      <point x="226" y="-48"/>
      <point x="314" y="-48" type="curve" smooth="yes"/>
      <point x="435" y="-48"/>
      <point x="505" y="20"/>
      <point x="505" y="191" type="curve"/>
      <point x="462" y="128"/>
      <point x="401" y="88"/>
      <point x="297" y="88" type="curve" smooth="yes"/>
      <point x="137" y="88"/>
      <point x="43" y="182"/>
      <point x="43" y="323" type="curve" smooth="yes"/>
      <point x="43" y="465"/>
      <point x="139" y="571"/>
      <point x="320" y="571" type="curve" smooth="yes"/>
      <point x="517" y="571"/>
      <point x="620" y="445"/>
      <point x="620" y="209" type="curve" smooth="yes"/>
      <point x="620" y="-32"/>
      <point x="513" y="-169"/>
      <point x="318" y="-169" type="curve" smooth="yes"/>
      <point x="210" y="-169"/>
      <point x="123" y="-127"/>
      <point x="47" y="-34" type="curve"/>
    </contour>
  </outline>
</glyph>
<glyph name="oe.ss12" format="2">
  <advance width="944"/>
  <outline>
    <contour>
      <point x="293.76" y="-20" type="curve" smooth="yes" name="dv01"/>
      <point x="462.54" y="-20"/>
      <point x="544.99" y="84"/>
      <point x="544.99" y="255" type="curve" smooth="yes"/>
      <point x="544.99" y="416"/>
      <point x="461.57" y="520"/>
      <point x="293.76" y="520" type="curve" smooth="yes" name="at01"/>
      <point x="136.62" y="520"/>
      <point x="42.53" y="416"/>
      <point x="42.53" y="255" type="curve" smooth="yes"/>
      <point x="42.53" y="84"/>
      <point x="137.59" y="-20"/>
    </contour>
    <contour>
      <point x="293.76" y="90" type="curve" smooth="yes" name="dv02"/>
      <point x="223.92" y="90"/>
      <point x="186.09" y="146.352"/>
      <point x="186.09" y="255.031" type="curve" smooth="yes"/>
      <point x="186.09" y="359.686"/>
      <point x="221.01" y="410"/>
      <point x="293.76" y="410" type="curve" smooth="yes" name="sv01"/>
      <point x="367.48" y="410"/>
      <point x="401.43" y="357.673"/>
      <point x="401.43" y="253.019" type="curve" smooth="yes"/>
      <point x="401.43" y="145.346"/>
      <point x="370.39" y="90"/>
    </contour>
    <contour>
      <point x="550.36" y="318" type="line"/>
      <point x="550.36" y="368"/>
      <point x="592.07" y="409"/>
      <point x="655.12" y="409" type="curve" smooth="yes"/>
      <point x="715.26" y="409"/>
      <point x="755.03" y="369"/>
      <point x="755.03" y="318" type="curve"/>
    </contour>
    <contour>
      <point x="864.64" y="174" type="line"/>
      <point x="815.17" y="117"/>
      <point x="762.79" y="90"/>
      <point x="700.71" y="90" type="curve" smooth="yes"/>
      <point x="604.68" y="90"/>
      <point x="547.45" y="144"/>
      <point x="547.45" y="236" type="curve"/>
      <point x="899.56" y="236" type="line"/>
      <point x="909.56" y="416"/>
      <point x="804.5" y="520"/>
      <point x="657.06" y="520" type="curve" smooth="yes"/>
      <point x="503.8" y="520"/>
      <point x="404.86" y="410"/>
      <point x="404.86" y="255" type="curve" smooth="yes"/>
      <point x="404.86" y="93"/>
      <point x="504.77" y="-20"/>
      <point x="670.64" y="-20" type="curve" smooth="yes"/>
      <point x="747.27" y="-20"/>
      <point x="810.32" y="15"/>
      <point x="871.43" y="91" type="curve"/>
    </contour>
  </outline>
</glyph>
<glyph name="schwa.ss09" format="2">
  <advance width="604"/>
  <anchor x="302" y="-20" name="bottom"/>
  <anchor x="302" y="520" name="top"/>
  <outline>
    <contour>
      <point x="51" y="289" type="line"/>
      <point x="50" y="281"/>
      <point x="49" y="268"/>
      <point x="49" y="251" type="curve" smooth="yes"/>
      <point x="49" y="81"/>
      <point x="142" y="-20"/>
      <point x="297" y="-20" type="curve" smooth="yes"/>
      <point x="457" y="-20"/>
      <point x="555" y="89"/>
      <point x="555" y="250" type="curve" smooth="yes"/>
      <point x="555" y="398"/>
      <point x="472" y="520"/>
      <point x="298" y="520" type="curve" smooth="yes"/>
      <point x="173" y="520"/>
      <point x="84" y="449.586"/>
      <point x="53" y="350" type="curve"/>
      <point x="199" y="350" type="line"/>
      <point x="213" y="385.593"/>
      <point x="244" y="410"/>
      <point x="292" y="410" type="curve" smooth="yes"/>
      <point x="362" y="410"/>
      <point x="399" y="371"/>
      <point x="407" y="289" type="curve"/>
    </contour>
    <contour>
      <point x="405" y="199" type="line"/>
      <point x="394" y="126"/>
      <point x="360" y="90"/>
      <point x="302" y="90" type="curve" smooth="yes"/>
      <point x="237" y="90"/>
      <point x="204" y="132"/>
      <point x="200" y="199" type="curve"/>
    </contour>
  </outline>
</glyph>
<glyph name="shchacyr.loclBGR" format="2">
  <advance width="964"/>
  <outline>
    <contour>
      <point x="865" y="500" type="line" name="ab01"/>
      <point x="720" y="500" type="line" name="sh01"/>
      <point x="720" y="0" type="line" name="av01"/>
      <point x="865" y="0" type="line"/>
    </contour>
    <contour>
      <point x="540" y="500" type="line" name="ab01"/>
      <point x="395" y="500" type="line"/>
      <point x="395" y="186" type="line" smooth="yes"/>
      <point x="395" y="38"/>
      <point x="461" y="-20"/>
      <point x="550" y="-20" type="curve" smooth="yes" name="at01"/>
      <point x="643" y="-20"/>
      <point x="711" y="44"/>
      <point x="728" y="139" type="curve"/>
      <point x="727" y="218" type="line"/>
      <point x="720" y="283" type="line" name="iv01"/>
      <point x="720" y="166.396"/>
      <point x="681" y="90"/>
      <point x="609" y="90" type="curve" smooth="yes" name="sv01"/>
      <point x="567" y="90"/>
      <point x="540" y="116.064"/>
      <point x="540" y="221.32" type="curve" smooth="yes"/>
    </contour>
    <contour>
      <point x="215" y="500" type="line" name="ab01"/>
      <point x="70" y="500" type="line"/>
      <point x="70" y="186" type="line" smooth="yes"/>
      <point x="70" y="38"/>
      <point x="136" y="-20"/>
      <point x="225" y="-20" type="curve" smooth="yes" name="at01"/>
      <point x="318" y="-20"/>
      <point x="386" y="44"/>
      <point x="403" y="139" type="curve"/>
      <point x="402" y="218" type="line"/>
      <point x="395" y="283" type="line" name="iv01"/>
      <point x="395" y="166.396"/>
      <point x="356" y="90"/>
      <point x="284" y="90" type="curve" smooth="yes" name="sv01"/>
      <point x="242" y="90"/>
      <point x="215" y="116.064"/>
      <point x="215" y="221.32" type="curve" smooth="yes"/>
    </contour>
    <contour>
      <point x="945" y="-140" type="line"/>
      <point x="945" y="69"/>
      <point x="936" y="109"/>
      <point x="786" y="109" type="curve"/>
      <point x="786" y="0" type="line"/>
      <point x="854" y="0"/>
      <point x="839" y="-72"/>
      <point x="839" y="-140" type="curve"/>
    </contour>
  </outline>
</glyph>
<glyph name="tcedilla.ss11" format="2">
  <advance width="353"/>
  <anchor x="158" y="630" name="top"/>
  <anchor x="262" y="700" name="topright"/>
  <anchor x="141" y="-218" name="bottom"/>
  <outline>
    <contour>
      <point x="84" y="0" type="line"/>
      <point x="229" y="0" type="line"/>
      <point x="229" y="390" type="line"/>
      <point x="334" y="390" type="line"/>
      <point x="334" y="500" type="line"/>
      <point x="229" y="500" type="line"/>
      <point x="229" y="620" type="line"/>
      <point x="84" y="620" type="line"/>
      <point x="84" y="500" type="line"/>
      <point x="19" y="500" type="line"/>
      <point x="19" y="390" type="line"/>
      <point x="84" y="390" type="line"/>
    </contour>
    <contour>
      <point x="24" y="-205" type="line"/>
      <point x="48" y="-213"/>
      <point x="82" y="-218"/>
      <point x="121" y="-218" type="curve" smooth="yes"/>
      <point x="216" y="-218"/>
      <point x="265" y="-188"/>
      <point x="265" y="-135" type="curve" smooth="yes"/>
      <point x="265" y="-89"/>
      <point x="229" y="-64"/>
      <point x="167" y="-64" type="curve"/>
      <point x="211.665" y="16.2739" type="line"/>
      <point x="125.665" y="16.2739" type="line"/>
      <point x="68" y="-96" type="line"/>
      <point x="84" y="-94"/>
      <point x="97" y="-92"/>
      <point x="111" y="-92" type="curve" smooth="yes"/>
      <point x="145" y="-92"/>
      <point x="165" y="-105"/>
      <point x="165" y="-132" type="curve" smooth="yes"/>
      <point x="165" y="-158"/>
      <point x="145" y="-172"/>
      <point x="112" y="-172" type="curve" smooth="yes"/>
      <point x="92" y="-172"/>
      <point x="64" y="-167"/>
      <point x="44" y="-161" type="curve"/>
    </contour>
  </outline>
</glyph>
<glyph name="three.ss10" format="2">
  <advance width="550"/>
  <outline>
    <contour>
      <point x="17" y="117" type="line"/>
      <point x="81" y="27"/>
      <point x="168" y="-20"/>
      <point x="280" y="-20" type="curve" smooth="yes"/>
      <point x="427" y="-20"/>
      <point x="520" y="64.2895"/>
      <point x="520" y="183.349" type="curve" smooth="yes"/>
      <point x="520" y="310.836"/>
      <point x="414" y="373"/>
      <point x="192" y="373" type="curve"/>
      <point x="192" y="303" type="line"/>
      <point x="324" y="303"/>
      <point x="374" y="257.495"/>
      <point x="374" y="190.901" type="curve" smooth="yes"/>
      <point x="374" y="132.077"/>
      <point x="336" y="101"/>
      <point x="277" y="101" type="curve" smooth="yes"/>
      <point x="200" y="101"/>
      <point x="126" y="149"/>
      <point x="56" y="255" type="curve"/>
    </contour>
    <contour>
      <point x="54" y="445" type="line"/>
      <point x="136" y="565"/>
      <point x="206" y="599"/>
      <point x="273" y="599" type="curve" smooth="yes"/>
      <point x="331" y="599"/>
      <point x="354" y="568.329"/>
      <point x="354" y="517.605" type="curve" smooth="yes"/>
      <point x="354" y="446.826"/>
      <point x="309" y="402"/>
      <point x="192" y="402" type="curve"/>
      <point x="192" y="332" type="line"/>
      <point x="400" y="332"/>
      <point x="500" y="393.777"/>
      <point x="500" y="520.581" type="curve" smooth="yes"/>
      <point x="500" y="634.38"/>
      <point x="419" y="720"/>
      <point x="277" y="720" type="curve" smooth="yes"/>
      <point x="168" y="720"/>
      <point x="79" y="673"/>
      <point x="15" y="583" type="curve"/>
    </contour>
  </outline>
</glyph>
<glyph name="two.ss09" format="2">
  <advance width="612"/>
  <outline>
    <contour>
      <point x="47" y="0" type="line"/>
      <point x="566" y="0" type="line"/>
      <point x="566" y="120" type="line"/>
      <point x="47" y="120" type="line"/>
    </contour>
    <contour>
      <point x="47" y="84" type="line"/>
      <point x="407" y="153"/>
      <point x="566" y="279.956"/>
      <point x="566" y="486.529" type="curve" smooth="yes"/>
      <point x="566" y="639.307"/>
      <point x="479" y="720"/>
      <point x="329" y="720" type="curve" smooth="yes"/>
      <point x="168" y="720"/>
      <point x="75" y="633"/>
      <point x="49" y="502" type="curve"/>
      <point x="192" y="502" type="line"/>
      <point x="208" y="568"/>
      <point x="250" y="599"/>
      <point x="317" y="599" type="curve" smooth="yes"/>
      <point x="387" y="599"/>
      <point x="421" y="561.182"/>
      <point x="421" y="482.109" type="curve" smooth="yes"/>
      <point x="421" y="354.905"/>
      <point x="332" y="285"/>
      <point x="47" y="206" type="curve"/>
    </contour>
  </outline>
</glyph>
<glyph name="y.ss12" format="2">
  <advance width="615"/>
  <anchor x="550" y="-79" name="bottom"/>
  <anchor x="307" y="520" name="top"/>
  <outline>
    <contour>
      <point x="413" y="132" type="curve"/>
      <point x="397" y="263" type="line"/>
      <point x="397" y="165.265"/>
      <point x="371" y="130"/>
      <point x="301" y="130" type="curve" smooth="yes"/>
      <point x="231" y="130"/>
      <point x="207" y="156.093"/>
      <point x="207" y="252.339" type="curve" smooth="yes"/>
      <point x="207" y="500" type="line"/>
      <point x="62" y="500" type="line"/>
      <point x="62" y="236" type="line" smooth="yes"/>
      <point x="62" y="97"/>
      <point x="123" y="20"/>
      <point x="247" y="20" type="curve" smooth="yes"/>
      <point x="358" y="20"/>
      <point x="413" y="82"/>
    </contour>
    <contour>
      <point x="60" y="-33" type="line" name="sv12"/>
      <point x="66.6713" y="-159.755"/>
      <point x="144.284" y="-220"/>
      <point x="300.908" y="-220" type="curve" smooth="yes"/>
      <point x="459.796" y="-220"/>
      <point x="542" y="-134.077"/>
      <point x="542" y="32" type="curve" smooth="yes"/>
      <point x="542" y="500" type="line"/>
      <point x="397" y="500" type="line"/>
      <point x="397" y="34" type="line" smooth="yes"/>
      <point x="397" y="-76.1678"/>
      <point x="373.874" y="-110"/>
      <point x="298.57" y="-110" type="curve" smooth="yes"/>
      <point x="230.17" y="-110"/>
      <point x="207.144" y="-91.6397"/>
      <point x="202" y="-33" type="curve" name="sv04"/>
    </contour>
  </outline>
</glyph>
<glyph name="yucyr.loclBGR.ss11" format="2">
  <advance width="877"/>
  <anchor x="438" y="-20" name="bottom"/>
  <anchor x="438" y="520" name="top"/>
  <outline>
    <contour>
      <point x="70" y="0" type="line"/>
      <point x="215" y="0" type="line"/>
      <point x="215" y="700" type="line"/>
      <point x="70" y="700" type="line"/>
    </contour>
    <contour>
      <point x="182" y="200" type="line"/>
      <point x="358" y="200" type="line"/>
      <point x="358" y="310" type="line"/>
      <point x="182" y="310" type="line"/>
    </contour>
    <contour>
      <point x="564" y="-20" type="curve" smooth="yes" name="dv01"/>
      <point x="738" y="-20"/>
      <point x="823" y="84"/>
      <point x="823" y="255" type="curve" smooth="yes"/>
      <point x="823" y="416"/>
      <point x="737" y="520"/>
      <point x="564" y="520" type="curve" smooth="yes" name="at01"/>
      <point x="402" y="520"/>
      <point x="305" y="416"/>
      <point x="305" y="255" type="curve" smooth="yes"/>
      <point x="305" y="84"/>
      <point x="403" y="-20"/>
    </contour>
    <contour>
      <point x="564" y="90" type="curve" smooth="yes" name="dv02"/>
      <point x="492" y="90"/>
      <point x="453" y="146.352"/>
      <point x="453" y="255.031" type="curve" smooth="yes"/>
      <point x="453" y="359.686"/>
      <point x="489" y="410"/>
      <point x="564" y="410" type="curve" smooth="yes" name="sv01"/>
      <point x="640" y="410"/>
      <point x="675" y="357.673"/>
      <point x="675" y="253.019" type="curve" smooth="yes"/>
      <point x="675" y="145.346"/>
      <point x="643" y="90"/>
    </contour>
  </outline>
</glyph>
<glyph name="zecyr.loclBGR.ss12" format="2">
  <advance width="487"/>
  <outline>
    <contour>
      <point x="43" y="-38.5761" type="line"/>
      <point x="127" y="-92.5761"/>
      <point x="166.333" y="-111.576"/>
      <point x="210.212" y="-111.576" type="curve" smooth="yes"/>
      <point x="274.533" y="-111.576"/>
      <point x="305" y="-70.7493"/>
      <point x="305" y="-9.00832" type="curve" smooth="yes"/>
      <point x="305" y="73.8221"/>
      <point x="250.165" y="113.303"/>
      <point x="156" y="102" type="curve"/>
      <point x="156" y="207" type="line"/>
      <point x="239.233" y="219.664"/>
      <point x="284" y="267.443"/>
      <point x="284" y="330.728" type="curve" smooth="yes"/>
      <point x="284" y="377.906"/>
      <point x="259.121" y="410"/>
      <point x="212.144" y="410" type="curve" smooth="yes"/>
      <point x="176" y="410"/>
      <point x="129" y="391"/>
      <point x="43" y="337" type="curve"/>
      <point x="36" y="421" type="line"/>
      <point x="94" y="486"/>
      <point x="166" y="520"/>
      <point x="243.89" y="520" type="curve" smooth="yes"/>
      <point x="351.6" y="520"/>
      <point x="426" y="454.982"/>
      <point x="426" y="356.34" type="curve" smooth="yes"/>
      <point x="426" y="270.871"/>
      <point x="370.145" y="196.731"/>
      <point x="256" y="174.971" type="curve"/>
      <point x="380.36" y="174.586"/>
      <point x="454.952" y="103.045"/>
      <point x="454.952" y="-15.7296" type="curve" smooth="yes"/>
      <point x="454.952" y="-139.238"/>
      <point x="363.742" y="-221.576"/>
      <point x="226.927" y="-221.576" type="curve" smooth="yes"/>
      <point x="151.927" y="-221.576"/>
      <point x="93" y="-187.576"/>
      <point x="36" y="-122.576" type="curve"/>
    </contour>
  </outline>
</glyph>
<glyph name="zero.osf" format="2">
  <advance width="616"/>
  <outline>
    <contour>
      <point x="308" y="-20" type="curve" smooth="yes" name="dv01"/>
      <point x="482" y="-20"/>
      <point x="567" y="94.2074"/>
      <point x="567" y="281.991" type="curve" smooth="yes"/>
      <point x="567" y="458.793"/>
      <point x="481" y="573"/>
      <point x="308" y="573" type="curve" smooth="yes" name="at01"/>
      <point x="146" y="573"/>
      <point x="49" y="458.793"/>
      <point x="49" y="281.991" type="curve" smooth="yes"/>
      <point x="49" y="94.2074"/>
      <point x="147" y="-20"/>
    </contour>
    <contour>
      <point x="308" y="100" type="curve" smooth="yes" name="dv02"/>
      <point x="234.054" y="100"/>
      <point x="194" y="162.164"/>
      <point x="194" y="282.05" type="curve" smooth="yes"/>
      <point x="194" y="397.497"/>
      <point x="230.973" y="453"/>
      <point x="308" y="453" type="curve" smooth="yes" name="sv01"/>
      <point x="386.054" y="453"/>
      <point x="422" y="395.277"/>
      <point x="422" y="279.83" type="curve" smooth="yes"/>
      <point x="422" y="161.053"/>
      <point x="389.135" y="100"/>
    </contour>
  </outline>
</glyph>
<glyph name="zhecyr.loclBGR.ss11" format="2">
  <advance width="901"/>
  <anchor x="451" y="750" name="top"/>
  <anchor x="450" y="-20" name="bottom"/>
  <outline>
    <contour>
      <point x="481" y="253" type="line"/>
      <point x="274" y="253" type="line" name="iv01"/>
      <point x="182" y="0" type="line" name="ab02"/>
      <point x="20" y="0" type="line"/>
      <point x="158" y="283" type="line"/>
      <point x="33" y="500" type="line" name="av02"/>
      <point x="173" y="500" type="line"/>
      <point x="255" y="358" type="line" name="iv02"/>
      <point x="482" y="358" type="line"/>
    </contour>
    <contour>
      <point x="378" y="700" type="line"/>
      <point x="523" y="700" type="line"/>
      <point x="523" y="0" type="line"/>
      <point x="378" y="0" type="line"/>
    </contour>
    <contour>
      <point x="419" y="358" type="line"/>
      <point x="646" y="358" type="line" name="iv02"/>
      <point x="728" y="500" type="line"/>
      <point x="868" y="500" type="line" name="av02"/>
      <point x="743" y="283" type="line"/>
      <point x="881" y="0" type="line"/>
      <point x="719" y="0" type="line" name="ab02"/>
      <point x="627" y="253" type="line" name="iv01"/>
      <point x="420" y="253" type="line"/>
    </contour>
  </outline>
</glyph>
